<?xml version="1.0" encoding="utf-8"?>
<!-- Generator: Adobe Illustrator 23.0.5, SVG Export Plug-In . SVG Version: 6.00 Build 0)  -->
<svg version="1.1" id="Layer_1" xmlns="http://www.w3.org/2000/svg" xmlns:xlink="http://www.w3.org/1999/xlink" x="0px" y="0px"
	 viewBox="0 0 1000 1000" style="enable-background:new 0 0 1000 1000;" xml:space="preserve">
<style type="text/css">
	.st0{fill:#030200;}
	.st1{fill:#FFE700;}
	.st2{fill:#FFFFFF;}
	.st3{fill:#F8DA00;}
	.st4{fill:#BDA911;}
	.st5{fill:#BCA811;}
	.st6{fill:#BAA300;}
	.st7{fill:#C0A900;}
	.st8{fill:#C0A800;}
	.st9{fill:#FFE900;}
	.st10{fill:#F6D900;}
	.st11{fill:#BDA600;}
	.st12{fill:#F0DF48;}
	.st13{fill:#FFEE3D;}
	.st14{fill:#FFF04F;}
	.st15{fill:#D8BD00;}
	.st16{fill:#FFF04B;}
	.st17{fill:#F5E13E;}
	.st18{fill:#FFEC00;}
	.st19{fill:#C1A900;}
	.st20{fill:#C3AB00;}
	.st21{fill:#BBA400;}
	.st22{fill:#FADB00;}
	.st23{fill:#FFED20;}
	.st24{fill:#BFA800;}
	.st25{fill:#F0D300;}
	.st26{fill:#C5AD00;}
	.st27{fill:#ECD000;}
	.st28{fill:#EED100;}
	.st29{fill:#E8CC00;}
	.st30{fill:#948200;}
	.st31{fill:#EACE00;}
	.st32{fill:#CEB400;}
	.st33{fill:#F2D500;}
	.st34{fill:#9A8700;}
	.st35{fill:#FFEB00;}
	.st36{fill:#FFEF3F;}
	.st37{fill:#B49E00;}
	.st38{fill:#B39D00;}
	.st39{fill:#A49000;}
	.st40{fill:#F4D700;}
	.st41{fill:#AB9600;}
	.st42{fill:#D2B800;}
	.st43{fill:#D6BC00;}
	.st44{fill:#AD9700;}
	.st45{fill:#DABF00;}
	.st46{fill:#A79200;}
	.st47{fill:#CBB300;}
	.st48{fill:#D0B600;}
	.st49{fill:#AF9900;}
	.st50{fill:#C7AF00;}
	.st51{fill:#A08D00;}
	.st52{fill:#938100;}
	.st53{fill:#FFF47F;}
	.st54{fill:#FFF265;}
</style>
<g>
	<g>
		<path class="st0" d="M452.69,19.25c20.99-1.76,42.08-2.38,63.13-1.63c28.95,0.72,57.73,4.72,86.07,10.61
			c10.59,2.81,21.34,5.04,31.81,8.34c7.08,2.02,14.12,4.21,21.1,6.58c1.19,0.44,2.38,0.89,3.59,1.32c4.8,1.97,9.74,3.58,14.64,5.31
			c2.57,1,5.09,2.12,7.63,3.21c3.62,1.54,7.26,3.03,10.88,4.58c3.94,1.63,7.82,3.41,11.67,5.26c34.44,16.07,66.78,36.45,96.46,60.17
			c2.62,2.13,5.16,4.36,7.8,6.47c8.57,7.03,16.73,14.54,24.76,22.18c3.23,3.26,6.43,6.55,9.72,9.75c0.79,0.78,1.58,1.56,2.39,2.34
			c2.39,2.38,4.68,4.86,7.03,7.3c17.26,18.56,32.97,38.53,47.23,59.48c24.75,36.89,44.61,77.06,58.65,119.22
			c20.1,60.22,27.95,124.46,23.21,187.77c-3.72,49.58-15.22,98.6-34.1,144.6c-3.47,8.26-6.99,16.51-10.86,24.59
			c-2.46,5.76-5.5,11.23-8.42,16.77c-4.32,8.26-8.95,16.36-13.74,24.37c-0.13,0.23-0.41,0.69-0.55,0.92
			c-2.03,3.42-4.26,6.72-6.31,10.13c-0.96,1.54-1.94,3.07-2.95,4.58c-2.11,3.07-4.28,6.1-6.28,9.24c-1.24,1.77-2.47,3.55-3.71,5.32
			c-2.53,3.6-5.14,7.14-7.75,10.68c-12.76,16.76-26.44,32.84-41.22,47.85c-9.33,9.52-19.11,18.62-29.13,27.41
			c-5.91,5.11-11.94,10.09-18.09,14.91c-3.47,2.77-6.99,5.49-10.59,8.1c-12.09,9.1-24.69,17.54-37.61,25.4
			c-8.43,5.02-16.86,10.02-25.56,14.57c-3.26,1.66-6.55,3.26-9.81,4.94c-7.08,3.78-14.46,6.93-21.74,10.3
			c-4.04,1.81-8.21,3.31-12.24,5.15c-7.85,3.09-15.71,6.2-23.7,8.92c-6.93,2.33-13.93,4.42-20.85,6.78
			c-9.37,2.73-18.88,5.01-28.31,7.53c-5.19,0.86-10.27,2.2-15.46,3.04c-19.13,3.88-38.56,5.88-57.98,7.72
			c-17.07,1.34-34.23,1.48-51.35,1.02c-2.11-0.06-4.22-0.15-6.32-0.21c-4.2-0.08-8.38-0.48-12.57-0.72
			c-22.4-1.32-44.56-4.95-66.56-9.23c-1.87-0.4-3.71-0.89-5.55-1.37c-0.74,0.6-1.47,1.23-2.18,1.87c-0.78-0.04-1.55-0.07-2.31-0.1
			c0.93-1.18,2.12-2.07,3.54-2.56c-9.76-1.13-19.16-4.25-28.59-6.91c-17.85-5.16-35.34-11.48-52.43-18.79
			c-7.78-3.22-15.44-6.74-23.02-10.4c-1.99-1.05-3.99-2.08-6.01-3.06c-10.65-5.26-20.96-11.17-31.17-17.25
			c-10.5-6.37-20.84-13.02-30.8-20.22c-0.84-0.62-1.69-1.24-2.53-1.84c-6.76-4.85-13.36-9.92-19.87-15.1
			c-6.42-5.16-12.81-10.38-18.9-15.92c-2.87-2.75-5.84-5.39-8.79-8.05c-19.85-18.31-37.94-38.49-54.45-59.85
			c-14.08-18.5-26.92-37.95-38.29-58.24c-2.08-3.67-3.98-7.45-6.01-11.15c-1.4-2.56-2.75-5.15-4.02-7.77
			c-3.81-7.72-7.5-15.51-10.95-23.4c-2.44-5.47-4.58-11.06-6.9-16.58c-3-7.57-5.63-15.27-8.4-22.93c-0.22-0.8-0.46-1.59-0.7-2.36
			c-2.87-8.9-5.48-17.89-7.92-26.92c-3.13-12.16-5.93-24.4-8.15-36.76c-0.1-0.59-0.31-1.78-0.41-2.38c-0.44-2.63-0.85-5.27-1.26-7.9
			c-0.06-0.3-0.16-0.89-0.21-1.19c-0.65-4.16-1.2-8.32-1.79-12.48c-0.05-0.45-0.16-1.36-0.21-1.82c-0.37-3.27-0.79-6.54-1.13-9.81
			c-0.13-1.28-0.25-2.54-0.38-3.8c-0.14-1.46-0.29-2.9-0.42-4.35c-0.29-3.03-0.48-6.06-0.67-9.09c-0.56-7.42-0.87-14.87-1-22.31
			c0.01-1.61,0.01-3.2-0.03-4.79c-0.03-4.51-0.01-9.01,0.03-13.51c0.06-5.15,0.22-10.3,0.43-15.45c0.21-5.07,0.52-10.14,1.01-15.19
			c1.07-12.96,2.7-25.87,4.66-38.72c3.79-24.08,9.76-47.79,17.11-71.03c0.73-2.14,1.5-4.28,2.21-6.44c0.18-0.52,0.53-1.58,0.71-2.11
			c2.38-7.31,5.24-14.44,7.96-21.63l0.24-0.57c1.65-3.93,3.23-7.89,4.85-11.83c0.46-0.96,0.91-1.92,1.35-2.88
			c2.08-4.99,4.45-9.84,6.73-14.73c0.54-1.17,1.09-2.33,1.64-3.48c0.7-1.46,1.4-2.91,2.09-4.37c1.18-2.33,2.48-4.6,3.68-6.91
			c0.55-1.12,1.09-2.23,1.61-3.35c0.46-0.9,0.95-1.79,1.43-2.67c1.14-2.1,2.32-4.18,3.49-6.26c0.7-1.25,1.38-2.5,2.07-3.74
			c0.24-0.44,0.73-1.32,0.97-1.76c2.84-4.75,5.63-9.53,8.56-14.22c3.25-5.12,6.5-10.24,9.9-15.26c10.2-15.24,21.32-29.87,33.25-43.8
			c4.6-5.59,9.46-10.95,14.38-16.25c12.34-13.23,25.48-25.7,39.18-37.52c14.84-13.07,30.98-24.54,47.29-35.69
			C285.21,61.77,345.92,37,409.13,25.32c7.96-1.22,15.85-2.82,23.85-3.79C439.53,20.61,446.12,19.99,452.69,19.25z M464.82,56.41
			c-15.88,1.28-31.76,3.07-47.41,6.08c-5.18,0.41-10.31,1.5-15.29,2.92l-0.34,0.27c-0.95-0.95-3.98-0.81-3.72,0.91l-1.17,0.15
			c-1.55-1.05-2.51-0.78-2.88,0.82l-1.13,0.21c-1.53-1.07-2.53-0.81-3,0.79c-2.87,0.17-5.64,1.08-8.35,1.96
			c-4.83,0.71-9.56,2.1-14.07,3.94l-0.16,0.07c-3.69,0.49-7.12,1.96-10.65,3.05c-7.13,2.57-14.59,4.48-21.31,8l-0.08,0.04
			c-3.44,0.6-6.64,2.12-9.69,3.76l-0.16,0.05c-4.78,1.52-9.52,3.46-13.81,6.06l-0.31,0.14c-1.19,0.32-2.34,0.72-3.45,1.2
			c-27.05,12.58-52.85,27.84-76.88,45.51c-2.69,2.01-5.57,3.83-7.83,6.35l-0.15,0.11c-3.89,1.96-6.91,5.25-10.42,7.79
			c-1.18,1.33-3.5,1.98-3.91,3.82l-0.75,0.3c-0.51,0.04-1.52,0.14-2.02,0.18c-0.12,2.06-2.15,2.99-3.44,4.25
			c-16.06,13.91-31.1,28.99-45.05,45.01c-1.64,1.77-2.83,4.16-5.18,5.11c-0.15,0.52-0.45,1.55-0.6,2.07
			c-0.23,0.31-0.69,0.93-0.92,1.25c-0.57,0-1.71,0-2.28,0l0.98,1.26c-9.81,11.48-18.51,23.85-27.04,36.29l-1.27,0.02
			c-0.01,0.62-0.02,1.86-0.02,2.48l-0.31,0.77c-0.42-0.02-1.26-0.07-1.68-0.09l0.18,1.63c-4.08,6.86-8.85,13.43-12.2,20.65
			l-0.36,0.79c-1.47,0.04-1.54,1.7-2.08,2.71c-4.99,9.98-10.95,19.57-14.79,30.07l-0.04,0.09c-1.82,2.53-2.82,5.51-4.11,8.32
			c-3.04,7.4-6.66,14.66-8.71,22.41l-0.1,0.24c-2.34,4.3-3.84,9.11-4.93,13.88l-0.06,0.18c-2.3,5.05-3.96,10.46-5.04,15.91
			c-0.89,2.18-1.46,4.48-1.9,6.79c-2.48,6.48-4.04,13.4-5.11,20.25c-0.85,3.1-1.7,6.25-1.89,9.47c-1.81-0.23-1.82,2.95-0.79,3.9
			c-4.09,18.26-6.02,37.04-7.4,55.71c-1.26,9.01-0.89,18.17-0.91,27.25c-0.04,1.26-0.04,2.51,0,3.78
			c-0.02,8.12-0.29,16.29,0.7,24.36c1.38,19.63,3.33,39.39,7.62,58.6c-1.05,0.92-1.01,4.07,0.78,3.91c0.17,3.21,1.07,6.33,1.89,9.43
			c1.06,6.86,2.63,13.77,5.11,20.26c0.43,2.3,1.01,4.6,1.9,6.79c0.8,4.55,2.21,9,4.08,13.23c0.25,0.9,0.54,1.8,0.9,2.69
			c1.27,4.85,2.68,9.83,5.14,14.23l0.01,0.02c0.76,4.19,2.82,8,4.28,11.98c2.74,6.23,4.95,12.83,8.44,18.65l0.34,0.77
			c2.09,6.22,5.61,11.98,8.47,17.92c10.27,19.65,21.95,38.58,35.02,56.5c1.36,1.86,2.62,3.83,4.4,5.34l0.07,0.08
			c1.06,2.47,2.97,4.44,4.57,6.58c13.22,16.97,27.7,32.95,43.22,47.85c6.11,5.7,12.04,11.72,18.81,16.64
			c0.07,0.02,0.21,0.06,0.28,0.08c-0.2,1.58,0.51,2.25,2.13,2.03l0.03,0.1c17.5,15.45,36.81,28.77,56.62,41.07
			c1.04,0.67,1.98,1.73,3.35,1.68l0.78,0.39c0.34,1.4,2,1.48,3.03,2.21c18.86,10.92,38.46,20.56,58.69,28.69
			c1.78,0.63,3.49,1.69,5.44,1.77l0.8,0.31c1.98,1.66,4.73,1.95,7.05,3c8.11,2.77,16.12,6.04,24.51,7.86l0.16,0.07
			c4.52,1.83,9.26,3.22,14.09,3.93c9.95,2.87,20.11,5.04,30.27,7.09c1.4,0.43,2.83,0.69,4.29,0.97c0.47,0.07,1.4,0.21,1.87,0.28
			l-0.2,0.24c0.79,0.07,2.37,0.23,3.16,0.31c0.68,0,2.06,0.01,2.75,0.02l0.38,0.73c0.72,0.11,2.18,0.34,2.91,0.45
			c0.43-0.06,1.29-0.19,1.72-0.25c2.35,1.65,5.46,1.01,8.13,1.83c4.21,0.27,8.23,1.71,12.48,1.51l1,0.69
			c11.82,1.25,23.6,3.75,35.57,3.25c5.84,1.56,11.92,0.78,17.89,0.96c11.67,0.46,23.36-0.06,35.03-0.13
			c4.21-1.43,8.68-0.66,13.03-0.94c6.37-0.34,12.68-1.36,19.02-2.08c15.1-2.74,30.65-3.95,45.37-8.63c1.36-0.27,2.89-0.1,4.04-1.02
			c1.34-0.25,2.83-0.08,3.99-0.94c12.23-2.79,24.33-6.31,35.99-10.96c1.01-0.29,2.01-0.62,3-1c2.68-0.95,5.43-1.72,7.98-3.01
			c8.66-2.83,16.96-6.63,25.17-10.56c0.49-0.26,1.48-0.78,1.98-1.05c7.9-3.17,15.33-7.41,22.97-11.17
			c16.86-9.5,33.56-19.39,49.04-31.04c8.88-6.71,17.97-13.2,26.22-20.68c4.56-3.39,8.24-7.76,12.73-11.22
			c14.79-13.26,28.06-28.08,40.95-43.15c12.63-15.95,24.95-32.23,35.22-49.83c7.88-12.5,14.94-25.52,21.01-38.98
			c4.68-9.5,9.17-19.13,12.54-29.17c1.69-3.54,2.77-7.32,4.03-11.01c4.72-11.62,8.13-23.76,10.97-35.97
			c0.81-1.17,0.71-2.64,0.95-3.97c0.66-1.25,0.77-2.67,1.03-4.03c3.32-10.02,4.43-20.59,6.31-30.93c2.2-15.42,4.94-30.95,4.44-46.62
			c1.87-9.46,0.71-19.22,0.98-28.83c0.38-26.43-0.93-52.93-5.1-79.05c-0.43-5.82-1.28-11.72-2.98-17.31l-0.26-0.61
			c1.04-0.91,1.01-4.11-0.78-3.84c-0.21-3.23-1.03-6.4-1.92-9.5c-1.02-6.84-2.62-13.72-5.07-20.19c-0.45-2.32-1.04-4.62-1.9-6.81
			c-1.11-5.51-2.79-10.96-5.1-16.07l-0.01-0.02c-1.14-4.67-2.51-9.55-4.78-13.74l-0.32-0.77c0.14-1.53-0.61-2.88-1.19-4.21
			c-3.8-8.78-6.94-17.89-11.54-26.29l-0.14-0.22c-1.76-5.41-4.73-10.31-7.16-15.42c-15.03-29.03-32.84-56.77-54.09-81.64l0.36,0.54
			c-0.24-0.22-0.73-0.66-0.97-0.88l0.66,0.36c-5.19-6.41-10.39-12.98-16.54-18.46c-0.1-0.11-0.3-0.34-0.4-0.45l0.91,0.36
			c-4.78-5.36-9.91-10.41-15-15.48c-2.3-2.15-4.33-4.64-7.02-6.33l-0.1-0.09c-2.05-2.76-4.91-4.72-7.37-7.08
			c-2.17-1.9-4.1-4.13-6.69-5.46c-0.07-0.06-0.21-0.16-0.28-0.21c-2.08-2.72-4.95-4.63-7.51-6.84c-4.02-3.01-7.57-6.74-12.02-9.09
			l-0.02-0.02c-4.12-4.24-9.33-7.21-13.98-10.81c-12.06-8.31-24.18-16.74-37.24-23.4c-0.28-0.16-0.85-0.47-1.13-0.63
			c-5.69-4.06-12.19-6.87-18.32-10.21c-5.16-2.37-10.04-5.46-15.5-7.1l-0.14-0.07c-4.97-2.92-10.37-5.22-15.85-6.97l-0.04-0.02
			c-3.14-1.7-6.44-3.25-9.97-3.89l-0.03-0.01c-3.83-2.34-8.29-3.34-12.42-5c-6.5-2.08-12.86-4.77-19.58-6.07l-0.1-0.05
			c-4.51-1.86-9.28-3.24-14.11-3.95c-2.74-0.89-5.52-1.82-8.41-1.96c-0.41-1.6-1.39-1.87-2.93-0.81l-1.13-0.19
			c-0.38-1.6-1.35-1.87-2.89-0.82l-1.16-0.16c0.21-1.72-2.8-1.87-3.72-0.89l-0.37-0.28c-4.96-1.43-10.07-2.5-15.22-2.91
			c-15.9-3.08-32.02-4.84-48.13-6.16c-5.51-0.82-11.13-1-16.69-0.73c-10.67-0.75-21.45-0.74-32.12-0.01
			C476.44,55.35,470.57,55.52,464.82,56.41z"/>
	</g>
	<path class="st0" d="M377.73,145.26c41.72-14.46,85.84-22.45,130.04-22.2c42.64-0.06,85.32,7.31,125.34,22.07
		c4.24,1.65,8.88,2.57,12.59,5.34c4.09,3.08,6.35,8.7,4.82,13.69c-2.79,8.41-6.12,16.64-10.14,24.54c-2.85,2.73-6.8,4.14-10.7,3.05
		c-39.11-13.71-80.53-20.62-121.95-20.94c-48.32,0.13-96.74,9.46-141.28,28.31c-1.02,0.43-2.11,0.51-3.19,0.62
		c1.49-2.72,2.78-5.55,3.91-8.44c0.07-0.18,0.2-0.54,0.27-0.72l0.25-0.77c1.59-0.97,2.28-3.01,2.05-4.8l-0.06-0.5l0.8-0.23
		c0.08-0.44,0.26-1.33,0.35-1.77l-0.08-0.85c0.27-0.53,0.81-1.61,1.09-2.15l-0.08-0.82c0.27-0.55,0.8-1.64,1.07-2.19l-0.08-0.85
		c0.27-0.55,0.79-1.63,1.06-2.18l-0.11-0.85c1.21-0.76,1.59-1.85,1.14-3.29c0.89-3.38,1.59-6.81,2.07-10.27
		C378.45,154.61,377.59,149.86,377.73,145.26z"/>
	<g>
		<path class="st0" d="M367.05,204.73c42.08-19.52,88.46-29.53,134.82-29.48c35.03-0.15,70.17,4.91,103.57,15.55
			c5.52,1.97,11.49,3.37,16.08,7.22c4.96,5.02,2.09,12.14-0.42,17.57c-2.44,6.52-4.82,13.05-7.27,19.56
			c-13.54,36.29-27,72.6-40.52,108.89c-1.89,5.16-5.76,10.41-11.55,11.27c-3.7-0.28-7.4-1.06-11.11-0.52
			c-17.19,1.86-33.92,9.01-46.77,20.64c-17.24,15.59-24.55,40.47-20.94,63.14c2.64,16.54,11.82,31.43,23.73,42.96
			c3.4,3.36,7.42,6.52,8.95,11.24c1.32,3.74-0.25,7.59-1.33,11.17c-1.43,4.29-2.5,8.7-4.07,12.94c-0.91,2.16-2.03,4.75-4.51,5.43
			c-2.67,0.75-5.03-1.39-6.17-3.59c-28.46-50.37-57.04-100.67-85.51-151.03c-2.75-4.87-5.59-9.69-8.2-14.63
			c14.87-2.71,28.74-10.47,38.76-21.8c13.16-14.41,19.76-34.38,18.24-53.78c-1.3-23-14.41-45.03-34.19-56.91
			c-5.74-3.39-11.91-6.15-18.42-7.65c-17.02-4.73-36.04-2.01-51.07,7.27c-5.17,2.72-9.5,6.67-14.05,10.28
			c2.06-2.81,4.13-5.65,5.71-8.77c2.04-0.6,2.76-2.76,2.98-4.66l0.09-0.46c2.1-0.61,2.65-2.89,3.05-4.75l0.27-0.63l0.11-0.26
			l0.15-0.28l0.29-0.54C360.28,207.47,363.85,206.33,367.05,204.73z M468.1,203.61c-1.93,5.09-1.24,10.69,0.73,15.65l0.11,0.01
			c3.43,6.95,10.97,11.97,18.87,11.24c3.97,0.06,7.58-1.75,10.84-3.82c5.78-4.83,8.94-12.83,7.25-20.26
			c-1.51-8.3-8.67-15.42-17.17-16.22C479.78,189,470.82,195.12,468.1,203.61z M550.12,200.92c-3.81,1.57-6.39,5.49-6.58,9.57
			c-0.75,6.33,4.76,12.54,11.18,12.32c7.18,0.1,12.6-7.95,10.33-14.61C563.47,202,556.02,198.09,550.12,200.92z M597.84,204.31
			c-4.41,1.96-5.86,7.58-3.77,11.75c2.3,3.18,6.76,5.18,10.42,3.01c4.86-2.16,5.44-8.93,2.46-12.88
			C604.44,204.16,600.94,202.6,597.84,204.31z M508.26,242.01c-6.55,1.58-13.44,5.47-15.46,12.32c-2.14,6.01,1.25,12.42,5.6,16.5
			c1.76,1.72,4.39,0.75,5.7-1.02c2.54-3.08,4.32-7.54,8.59-8.54c4.55-0.32,8.54,4.72,6.86,9.08c-2.86,8.72-11.45,13.24-18.37,18.38
			c-6.76,5.06-14.27,10.45-17.17,18.74c-3.27,9.26,5.4,19.03,14.72,18.99c5.81,0.55,11.24-2.84,14.81-7.18
			c4.48-5.86,4.85-13.52,8.05-19.98c2.67-5.64,5.72-11.67,11.23-15.02c3.67-2.3,8.9-0.46,10.92,3.18c1.4,5-4.79,8.08-3.96,13.04
			c0,5.75,6.65,10.11,11.93,7.73c7.47-3.02,12.27-11.01,12.45-18.94c0.22-9.45-3.89-18.38-9.1-26.04
			c-4.75-6.78-10.29-13.33-17.67-17.33C528.59,241.16,518,239.56,508.26,242.01z M549.37,319.1c-5.77,1.53-9.98,7.37-9.56,13.33
			c-0.15,6.84,5.99,13.45,12.98,13.04c7.43,0.54,13.7-6.87,12.92-14.08C565.67,323.38,557.14,316.7,549.37,319.1z M458.26,354.01
			c-6.31,3.75-11.49,9.18-17.4,13.55c-3.28,2.19-5.72,5.79-5.54,9.86c0.48,5.27,4.68,8.99,7.24,13.32c2.74,3.49,4.45,8.49,9.05,9.94
			c2.62,1.02,5.58,0.03,7.68-1.67c4.01-3.35,7.98-6.77,12-10.12c2.22-1.82,3.74-4.47,4.26-7.29c1.25-7.22-4.2-13.02-6.63-19.37
			C467.25,357.88,463.83,352.1,458.26,354.01z"/>
	</g>
	<path class="st0" d="M471.91,211.52c-0.76-8.01,5.66-16.24,13.95-16.34c8.36-0.73,15.82,7.09,15.47,15.32
		c0.23,5.69-3.27,10.8-8.03,13.64c-6.35,3.19-14.24,0.94-18.51-4.56C473.32,217.11,472.14,214.41,471.91,211.52z"/>
	<path class="st0" d="M551.15,203.78c5.05-2.38,11.37,2.17,10.86,7.68c0.29,5.51-6.36,9.86-11.19,6.96
		C544.87,215.81,545.25,206.24,551.15,203.78z"/>
	<path class="st0" d="M598.51,207.13c1.93-1.51,4.31-0.24,6.37,0.26c1.22,2.49,2.33,5.85,0.03,8.12c-2.45,2.96-6.97,1.5-8.68-1.5
		C595.58,211.51,596.13,208.52,598.51,207.13z"/>
	<g>
		<path class="st0" d="M381.81,218.53c13.71-3.01,28.44-1.03,40.87,5.47c13.44,6.88,24.17,18.68,29.96,32.6
			c7.03,16.58,6.96,36-0.3,52.49c-8.58,20.3-28.35,35.62-50.41,37.8c-12.17-21.62-24.33-43.23-36.54-64.82
			c-5.48-9.66-10.89-19.37-16.38-29.03c-1.76-3.08-3.49-6.17-5.19-9.28C352.9,231.15,366.5,221.67,381.81,218.53z M407.23,232.97
			c-3.82,1.28-4.65,7.09-1.21,9.25c2.86,2.42,7.6-0.15,7.69-3.71C414.39,235.02,410.54,231.73,407.23,232.97z M371.94,236.67
			c-6.18,2.51-6.73,12.38-0.85,15.54c5,3.29,12.37-0.74,12.48-6.66C384.54,239.45,377.61,233.97,371.94,236.67z M424.13,252.82
			c-3.12,0.75-4.88,4.74-3.17,7.5c1.5,3.61,7.19,3.76,8.81,0.14C432.08,256.89,428.22,251.63,424.13,252.82z M395.22,262.15
			c-5.56,2.41-5.33,11.44,0.33,13.57c4.39,2.18,9.82-1.54,10-6.27C406.08,264.22,400.06,259.64,395.22,262.15z M377.22,272.9
			c-4.4,1.1-4.95,8.08-0.75,9.76c2.95,1.71,6.87-0.94,7.08-4.15C384,275.19,380.54,271.76,377.22,272.9z M430.32,273.08
			c-5.7,2.36-5.93,11.42-0.32,14.01c4.62,2.86,11.07-1.32,10.76-6.62C441.35,275.12,435.2,270.68,430.32,273.08z M403.88,300.79
			c-8.06,2.85-8.22,15.61-0.47,18.95c6.39,3.28,14.37-2.29,14.15-9.28C417.98,303.52,410.33,298.02,403.88,300.79z"/>
	</g>
	<path class="st0" d="M507.89,244.71c9.15-1.74,18.69,0,27.31,3.28c11.92,7.03,21.9,18.55,24.58,32.41c0.84,6,1.18,12.58-1.77,18.1
		c-1.8,3.36-5.32,6.35-9.34,5.96c-1.94-0.46-4.26-1.7-4.16-4.01c-0.53-3.95,2.09-7.29,2.82-11c-0.14-5.2-3.87-10.95-9.55-10.87
		c-4.75-0.43-8.62,3.06-11.32,6.56c-5.92,7.62-9.49,16.69-13.54,25.37c-1.87,3.92-3.28,8.64-7.35,10.86
		c-4.45,2.61-9.88,0.55-13.87-1.96c-4.47-2.54-5.17-8.78-3.12-13.11c3.4-7.49,9.7-13.29,16.56-17.63
		c6.49-4.27,12.9-9.12,17.05-15.81c3.88-6.65-2.93-16.09-10.45-14.44c-5.12,1-6.43,7.3-10.94,9.27c-1.51,0.26-2.37-1.15-2.83-2.32
		c-1.39-3.42-1.77-7.18-1.66-10.84C498.01,249.42,502.77,245.91,507.89,244.71z"/>
	<path class="st0" d="M549.01,323.64c3.22-1.22,7.31-0.82,9.8,1.75c4.23,3.92,3.61,11.71-1.38,14.72
		c-4.33,3.03-10.8,0.89-12.86-3.86C542.2,331.75,544.39,325.69,549.01,323.64z"/>
	<path class="st0" d="M457.02,359.56c2.27-1.32,5.74-0.78,7.05,1.67c2.3,4.08,4.14,8.4,6.24,12.59c2.33,3.92,1.66,9.3-1.86,12.3
		c-3.21,2.73-6.39,5.5-9.67,8.15c-2.52,2.33-7.03,2.06-9.12-0.72c-2.37-3.03-4.32-6.36-6.56-9.48c-1.76-2.5-3.82-5.4-2.93-8.65
		c0.53-3.74,4.12-5.59,6.72-7.83C450.31,364.97,453.4,361.91,457.02,359.56z"/>
	<g>
		<path class="st0" d="M522.69,368.21c12.84-6.88,28.1-8.82,42.35-6.03c-3.56,9.54-7,19.13-10.54,28.68
			c-11.62,32.03-23.45,63.98-35.03,96.01c-16.93-10.48-28.68-28.55-31.68-48.21c-0.79-8.67-0.95-17.53,1.12-26.04
			C493.11,393.9,505.6,377.08,522.69,368.21z M523.21,375.87c-7.63,2.52-7.74,14.56-0.21,17.28c6.47,3.06,14.01-3.89,12.07-10.59
			C534.23,377.19,528.22,373.98,523.21,375.87z M498.16,419.77c-3.06,1.75-3.96,6.22-1.52,8.87c2.66,3.44,8.9,2.02,9.76-2.28
			C507.87,421.76,502.35,417.08,498.16,419.77z M527.21,419.89c-4.25,1.48-5.04,7.9-1.23,10.32c3.4,2.79,9.17-0.42,8.76-4.74
			C535.04,421.7,530.77,418.41,527.21,419.89z M511.03,444.81c-4.8,2.34-4.79,10.09,0.06,12.36c3.96,2.48,9.85-0.97,9.67-5.62
			C521.55,446.51,515.48,442.17,511.03,444.81z"/>
	</g>
	<g>
		<path class="st0" d="M538.7,559.46c-0.31-3.13,3.17-5.28,6.03-4.45c22.63,3.31,45.23,6.78,67.85,10.16
			c20.61,3.11,41.23,6.12,61.83,9.31c1.42,0.21,2.86,0.42,4.3,0.64c9.72,1.43,19.42,2.91,29.14,4.35
			c-12.53,23.33-8.99,54.21,9.04,73.72c9.26,10.46,22.15,17.63,35.96,19.81c9.38,1.29,19.05,0.67,28.07-2.27
			c13.6-4.55,25.44-14.02,32.88-26.27c8.85-14.1,11.44-31.55,8.38-47.8c2.18,0.27,4.37,0.52,6.55,0.91
			c3.75,2.16,5.76,6.58,5.16,10.85c-0.98,7.99-2.94,15.83-4.44,23.74c-5.84,22.95-13.69,45.44-24.44,66.57
			c-12.5,24.93-28.51,48.04-47.05,68.85c-16.71,18.4-35.17,35.36-55.92,49.1c-3.11,1.92-6.46,4.19-10.29,3.87
			c-3.06-0.27-5.59-2.47-6.97-5.1c-2.45-4.51-4.94-9-7.56-13.4c-3.35-5.76-6.59-11.58-9.9-17.36c-5.44-9.4-10.73-18.89-16.15-28.31
			c-7.52-13.22-15.08-26.42-22.55-39.67c-2.44-4.29-4.98-8.52-7.33-12.85c-2.33-4.6-3.36-11.23,0.84-15.07
			c6.3-6.34,9.88-14.79,12.8-23.09c5.44-16.55,5.84-35.48-2.11-51.3c-6.99-13.79-18.76-25.5-33.42-30.86
			c-10.08-3.58-21.05-4.6-31.62-3c-4.75,0.52-9.73,2.11-14.42,0.4c-3.78-1.39-5.36-5.39-7.5-8.45
			C543.37,568.22,539.81,564.38,538.7,559.46z M652.28,585.11c-2.2,0.89-4.19,2.82-4.49,5.27c-0.51,4.01,0.08,8.06-0.01,12.09
			c0.16,3.2-0.49,6.73,1.31,9.61c1.51,2.92,4.45,4.94,7.68,5.5c5.03,1.07,10.03,2.32,15.11,3.18c3.53,0.52,6.89-2.75,6.74-6.25
			c0.09-6.7,0.05-13.41,0.02-20.1c0.11-4.66-4.11-9.02-8.81-8.84C663.98,585.71,658.05,583.9,652.28,585.11z M671.23,668.52
			c-1.63,7.73,3.05,14.73,7.62,20.48c2.65,6.48,6.85,13.38,5.29,20.7c-0.67,3.6-4.3,4.97-7.39,5.91c-2.82-1.54-3.86-4.56-4.76-7.42
			c-1.2-4.08-6.65-5.85-10.21-3.74c-3.03,1.4-4.32,4.82-4.64,7.94c-0.52,6.93,2.83,14.06,8.68,17.91c8.36,5.82,18.99,6.83,28.89,6.2
			c13.01-0.34,25.07-8.79,30.74-20.36c2.64-5.28,4.41-11.74,1.92-17.41c-1.78-4.6-6.73-7.28-11.52-7.21
			c-2.08-0.07-4.87-0.18-5.94,2.01c-0.81,4.26,2.4,8.24,1.32,12.49c-0.85,3.93-6.74,5.18-9.31,2.25c-3.41-3.69-3.78-9.06-3.92-13.82
			c0.62-8.63,1.35-17.35,0.28-25.97c-0.98-4.89-3.34-10.35-8.47-12.01C681.65,653.28,672.23,660.16,671.23,668.52z M639.17,684.9
			c-3.93,0.72-7.27,3.59-8.72,7.3c-2.81,6.78,1.79,15.68,9.34,16.3c6.91,1.17,13.41-5.32,12.89-12.16
			C652.7,689.56,645.88,683.64,639.17,684.9z M750.02,701.66c-3.77,2.44-6.48,6.41-7.47,10.77c-2.05,7.99,2.11,17.07,9.58,20.63
			c3.7,2,8.04,1.56,12.09,1.36l0.06-0.29c5.86-1.75,10.4-6.73,11.99-12.59c1.8-7.35-1.21-15.83-7.72-19.88
			C763.11,697.94,755.45,697.95,750.02,701.66z M711.72,765.47c0.01,4.62,3.83,8.12,7.87,9.7c6.09,0.78,11.54-4.03,11.82-10.09
			c-0.54-4-2.54-8.19-6.62-9.53C718.51,752.75,710.99,758.81,711.72,765.47z M692.21,792.02c-4.24,2.36-4.75,8.95-0.79,11.83
			c4.11,3.75,11.36,0.06,11.25-5.35C703.15,793.16,696.82,788.94,692.21,792.02z"/>
	</g>
	<g>
		<path class="st0" d="M463.17,562.04c5.5-1.49,10.82-4.15,16.66-3.83c1.52,1.94,3.14,4.36,1.78,6.88
			c-14.82,33.28-29.75,66.52-44.58,99.79c-6.34,14.18-12.64,28.38-19.02,42.55c-2.26,5.08-4.5,10.18-6.84,15.24
			c-11.48-11.92-27.75-19.41-44.4-19.22c-16.75-0.37-33.34,7.01-44.76,19.18c-10.6,10.79-16.53,25.52-17.89,40.47
			c-0.4,3.18-0.33,6.39-0.02,9.58c1.17,14.31,6.78,28.34,16.42,39.06c10.45,11.93,25.58,19.99,41.51,20.89
			c-1.31,3.6-2.84,7.98-6.98,9.1c-5.21,1.58-9.93-1.76-14.3-4.06c-44.48-23.71-82.21-59.33-109.87-101.36
			c-18.27-27.76-32.85-58.1-41.94-90.11c-1.17-4.23-2.4-9.3,0.44-13.15c2.87-4.14,8.44-4.03,12.8-5.37
			c24.84-6.18,49.67-12.44,74.52-18.56c13.64-3.44,27.28-6.85,40.92-10.27c4.69-1.2,10.39-0.89,13.84,2.91
			c1.98,3.02,3.33,6.45,5.79,9.17c11,12.93,26.15,22.74,42.95,25.91c18.99,3.43,39.04-3.86,52.47-17.45
			c10.47-10.67,16.2-25.2,18.25-39.83c0.7-4.48,0.83-9.38,3.71-13.12C456.58,563.62,460.13,563.02,463.17,562.04z M316.25,609.05
			c-5.1,1.71-8.75,7.07-8.27,12.47c0.34,5.77,5.13,10.89,10.94,11.37c6.92,0.69,13-5.77,12.67-12.54
			C331.58,612.86,323.52,606.5,316.25,609.05z M285.76,632.54c-6.9,3.24-11.55,9.85-14.59,16.62c-4.39,9.75-6.96,20.75-4.64,31.38
			c2.24,9.33,7.53,18.3,15.71,23.58c3.92,2.46,8.96,4.1,13.45,2.19c4.6-1.56,7.13-6.29,8.03-10.79c0.36-1.65,0.53-3.95-1.24-4.83
			c-3.87-1.98-8.84,0.33-12.42-2.54c-2.93-2.99-1.81-8.98,2.43-10.16c7.89-2.6,15.45,2.12,22.79,4.35
			c7.03,2.87,14.84,5.51,22.49,3.76c6.36-1.88,9.78-9.45,8.09-15.65c-1.12-8.04-9.31-13.49-17.11-12.99
			c-5.1,0.02-9.62,2.73-14.53,3.67c-5.88,1.07-12.18,2.11-17.9-0.22c-3.91-1.57-6-7.02-3.71-10.62c2.97-3.34,8.4-0.37,11.42-3.61
			c3.66-3.13,3.46-9.37-0.25-12.37C298.76,630.38,291.47,629.76,285.76,632.54z M205.11,638.83c-4.32,2.22-5.35,8.69-1.6,11.93
			c3.46,3.84,10.39,1.8,11.6-3.12C217.19,642.01,210.53,635.93,205.11,638.83z M389.95,659.76l-0.04-0.01
			c-2.25,4.94-5.1,9.58-7.27,14.56c-1.61,3.27,0.48,7.42,3.79,8.61c4,1.45,8.12,2.54,12.16,3.88c4.23,1.08,8.88,3.96,13.19,1.58
			c4.32-2.08,5.09-7.2,6.62-11.24c1.44-4.81,4.39-9.59,3.05-14.78c-1.2-1.93-2.83-3.71-5.1-4.31c-4.69-1.41-9.39-2.77-14.09-4.09
			C397.42,652.54,392.09,655.3,389.95,659.76z M228.15,671.91c-2.99,1.32-5.11,4.21-5.73,7.4c-1.39,6.08,4.04,12.82,10.39,12.23
			c6.27-0.11,10.98-7.19,8.98-13.06C240.43,672.74,233.51,669.35,228.15,671.91z M263.03,715.83c-9.83,2.01-16.29,13.06-13.45,22.63
			c2.04,8.91,11.63,15.54,20.69,13.38c9.73-1.95,16.45-12.88,13.66-22.43C281.89,720.34,272.21,713.76,263.03,715.83z"/>
	</g>
	<g>
		<path class="st0" d="M358.87,589.84c29.71-7.65,59.45-15.23,89.16-22.86c1.52,19.92-6.9,40.53-22.77,52.87
			c-12.85,10.4-30.35,14.95-46.6,11.7c-19.4-3.48-36.14-17.55-43.76-35.61C342.9,593.96,350.88,591.89,358.87,589.84z
			 M422.11,583.83c-4.85,2.54-3.69,10.64,1.69,11.61c4.57,1.33,8.79-3.76,7.12-8.03C429.95,583.83,425.31,581.8,422.11,583.83z
			 M397.26,586.01c-3.54,1.26-4.6,6.26-1.82,8.81c2.49,2.85,7.81,1.34,8.4-2.41C405.12,588.68,401.01,584.39,397.26,586.01z
			 M369.22,605.91c-2.62,0.74-4.81,2.75-5.74,5.32c-2.02,4.86,1.86,11.23,7.26,11.15c4.11,0.39,7.85-3.06,8.42-7.02
			C380.21,609.9,374.66,604.47,369.22,605.91z M411.26,608.03c-3.63,1.47-4.27,6.82-1.06,9.08c2.66,2.37,7.22,0.66,7.91-2.77
			C419.54,610.5,415.03,606.19,411.26,608.03z"/>
	</g>
	<g>
		<path class="st0" d="M713.84,580.21c16.62,2.56,33.24,5.05,49.86,7.63c1.61,0.24,3.23,0.47,4.86,0.71
			c7.78,1.2,15.57,2.36,23.36,3.58c7.27,1.15,14.56,2.14,21.82,3.34c1.72-0.15,1.74,1.85,2.11,2.99
			c2.34,11.38,1.69,23.49-2.57,34.35c-5.44,14.31-16.93,26.15-31.08,32c-13.42,5.42-29.02,5.32-42.28-0.54
			c-7.35-3.16-13.94-8-19.35-13.87c-7.04-7.86-11.95-17.6-13.95-27.96C703.68,608.09,706.39,592.79,713.84,580.21z M732.89,595.73
			c-7.39,2.09-8.38,13.65-1.44,16.93c6.4,3.75,14.74-3.16,12.61-10.12C743.2,597.53,737.74,594.26,732.89,595.73z M771.06,597.71
			c-3.18,1.63-2.94,6.69,0.33,8.04c2.82,1.86,6.57-1.26,6.3-4.32C777.65,598.22,773.82,596.16,771.06,597.71z M794.13,610.81
			c-5.28,2.54-5.72,10.89-0.41,13.62c4.8,3.12,11.67-1.42,11.03-7C804.86,612.23,798.76,608.51,794.13,610.81z M766.1,614.82
			c-4.39,1.69-5.47,8.12-1.66,11.01c3.46,3.7,10.23,0.63,10.28-4.28C775.47,616.96,770.39,612.9,766.1,614.82z M738.12,633.97
			c-4.59,2.67-3.91,10.12,0.96,12.08c5.04,2.52,11-3.44,8.76-8.47C746.74,633.57,741.58,631.63,738.12,633.97z M756.69,646.42
			c-0.24,2.57,2.09,4.01,4.11,4.93c1.66-0.77,3.77-1.39,4.33-3.37c1.35-2.84-1.29-6.1-4.21-6.24
			C758.63,642.03,756.36,643.91,756.69,646.42z M781.05,641.73c-2.17,1.56-2.83,5.13-0.66,6.99c2.11,2.92,7.07,1.17,7.45-2.21
			C788.6,642.9,784.22,639.65,781.05,641.73z"/>
	</g>
	<g>
		<path class="st0" d="M555.36,587.03c13.17-5.32,28.42-5.35,41.6-0.04c12.56,5.05,23.28,14.53,29.83,26.37
			c9.28,16.54,10.31,37.42,2.65,54.77c-3.44,7.98-8.8,15.03-15.22,20.85c-14.61-25.46-29.35-50.84-43.94-76.32
			C565.23,604.16,560.46,595.5,555.36,587.03z M579.81,597.48c-3.7,1.72-4.23,6.61-2.04,9.75c2.48,2.24,6.59,2.92,8.89,0.02
			c2.52-2.49,1.84-6.22-0.04-8.85C584.64,597.04,582.03,596.06,579.81,597.48z M604.15,603.96c-3.22,2.36-2.12,7.9,1.63,9.05
			c3.68,1.39,7.67-2.89,6.22-6.47C611.24,603.16,606.79,601.74,604.15,603.96z M590.31,622.96c-3.07,0.69-5,4.57-3.36,7.35
			c1.4,3.35,6.54,3.91,8.52,0.78C598.27,627.58,594.63,621.87,590.31,622.96z M618.08,640.8c-6.17,1.76-7.53,10.88-2.31,14.47
			c3.97,3.34,10.64,1.15,12.03-3.78C630.43,645.73,624.15,638.65,618.08,640.8z"/>
	</g>
	<path class="st0" d="M655,588.74c4.18-0.75,8.48,0.54,12.72,0.47c3.61-0.3,7.3,2.36,7.58,6.08c0.34,5.39,0.03,10.81,0.05,16.21
		c0.29,2.68-1.69,5.57-4.58,5.37c-4.41-0.4-8.69-1.68-13.01-2.59c-3.34-0.62-6.1-3.56-6.41-6.95c-0.33-3.97-0.41-7.96-0.51-11.93
		C650.64,592.6,652.18,589.56,655,588.74z"/>
	<path class="st0" d="M847.15,592.87c5.99-1.64,11.85,1.29,17.7,2.25c4.64,1.3,10.71,1.2,13.45,5.89
		c3.13,5.18,0.97,11.38-0.03,16.86c-3.87,19.94-9.55,39.46-15.81,58.76c-6.74,17.6-13.86,35.1-22.75,51.74
		c-28.82,55.17-72.09,103.19-125.59,135.3c-4.72,2.2-11.16,0.83-13.84-3.84c-3.34-5.52-6.44-11.18-9.24-16.99
		c-1.15-2.52-2.02-5.42-1.07-8.14c0.85-2.59,3.04-4.38,5.19-5.89c29.1-19.93,55.23-44.22,76.98-72
		c31.51-40.32,54.27-87.66,65.11-137.73c1.38-5.71,1.91-11.57,3-17.33C841.04,597.9,843.41,594.37,847.15,592.87z"/>
	<path class="st0" d="M317.12,612.87c6.47-2.85,13.27,5.14,10.24,11.26c-1.9,5.11-9.28,6.78-13.04,2.74
		C309.85,622.92,311.42,614.75,317.12,612.87z"/>
	<path class="st0" d="M158.77,629.24c4.8-0.83,9.78-2.74,14.64-1.45c4.49,1.37,5.72,6.3,6.86,10.28
		c17.36,58.07,49.19,111.91,92.57,154.34c23.38,22.66,49.63,42.71,78.95,57.07c4.46,2.35,7.29,7.36,6.31,12.43
		c-1.28,5.63-5.06,10.22-7.5,15.37c-2.28,3.78-3.68,8.87-8.24,10.55c-4.28,1.73-8.79-0.37-12.51-2.46
		c-27.69-15.28-53.84-33.46-77.32-54.68c-52.08-46.74-90.89-108.48-108.82-176.24c-1.86-6.04-4.16-12.85-0.56-18.76
		C146.93,630.97,153.39,630.79,158.77,629.24z"/>
	<path class="st0" d="M272.71,650.91c4-7.96,10.87-15.66,20.11-16.98c4.47-0.89,10.34,2.38,9.65,7.42c-1.61,5.27-8.81,3.1-11.9,6.81
		c-3.49,3.35-3.83,9.42-0.46,12.97c3.15,3.46,8.25,3.91,12.65,4.04c9.11-0.26,18.04-2.29,27.01-3.65c3.27-0.62,6.97,0.15,9.23,2.72
		c2.57,3.06,3.36,7.22,3.24,11.12c-0.08,3.86-3.49,6.81-7.04,7.65c-5.96,1.5-12.09-0.17-17.83-1.83
		c-7.84-3.29-15.98-7.05-24.69-6.53c-7.4,0.99-9.58,12.4-3.3,16.21c3.67,1.73,7.92,1.24,11.74,2.56c-0.15,4.52-3.92,7.65-7.29,10.1
		c-4.95,1.96-10.58-0.47-14.08-4.12c-5.61-5.76-8.87-13.42-11.03-21.05C267.47,669.08,268.9,659.45,272.71,650.91z"/>
	<path class="st0" d="M206.96,640.65c3.91-1.37,7.69,3.9,5.21,7.23c-1.49,2.7-5.64,3.05-7.52,0.61
		C202.43,646,203.61,641.42,206.96,640.65z"/>
	<path class="st0" d="M393.57,660.57c1.9-1.83,4.41-3.72,7.23-3.12c4.22,0.89,8.33,2.24,12.45,3.51c2.07,0.51,3.33,2.29,4.42,3.98
		c0.04,4.2-1.95,8-3.17,11.92c-1.05,2.81-1.72,6.32-4.7,7.77c-2.71,1.77-5.87,0.22-8.63-0.57c-4.16-1.53-8.61-2.33-12.6-4.3
		c-2.5-1.35-2.56-4.76-1.39-7.01C389.16,668.62,391.35,664.58,393.57,660.57z"/>
	<path class="st0" d="M678.74,662.3c2.98-1.92,6.86-4.08,10.35-2.1c5.43,2.71,6.48,9.4,7.68,14.74c0.77,8.92-1.72,17.81-0.3,26.71
		c0.48,3.26,0.95,7.02,3.71,9.24c4.09,3.23,10.83,1.92,13.17-2.83c1.73-4.36-1.62-8.96-0.22-13.32c1.79-1.15,3.9-0.17,5.62,0.64
		c2.96,1.53,6.38,3.46,7.02,7.08c1.87,7.38-2.45,14.41-7.37,19.54c-3.69,3.67-7.62,7.36-12.41,9.52
		c-10.71,3.9-23.24,4.73-33.58-0.69c-5.51-2.99-10.91-7.55-12.22-13.98c-0.97-3.59,0.81-8.35,4.75-9.15
		c3.61,0.28,5.05,4.08,6.7,6.75c1.87,3.86,6.98,5,10.77,3.59c3.88-1.95,5.88-6.53,5.26-10.75c-0.86-7.85-4.5-15.02-7.72-22.12
		c-1.86-4.26-4.45-8.25-5.53-12.81C673.5,668.49,675.37,664.34,678.74,662.3z"/>
	<path class="st0" d="M229.12,674.95c4.43-2.42,10.42,1.46,9.99,6.49c0.45,4.4-3.94,8.3-8.27,7.29
		C224.36,687.83,223.06,677.48,229.12,674.95z"/>
	<path class="st0" d="M638.95,688.7c5.29-1.9,11,3.35,10.14,8.75c-0.06,5.91-7.6,9.5-12.32,6.07
		C631.31,700.04,632.5,690.34,638.95,688.7z"/>
	<path class="st0" d="M746.55,719.43c-2.08-8.37,5.57-17.42,14.24-16.08c8.9,0.79,14.03,11.18,10.89,19.15
		c-1.65,2.58-3.6,5.03-6.29,6.58C757.78,732.95,747.73,727.93,746.55,719.43z"/>
	<g>
		<path class="st0" d="M326.38,724.95c12.36-12.56,30.96-18.87,48.37-15.67c13.24,2.07,25.34,9.3,34.03,19.41
			c-3.56,7.67-6.94,15.43-10.45,23.14c-0.39,0.86-0.77,1.74-1.14,2.63c-8.02,18.04-16.13,36.04-24.29,54.01
			c-2.72,5.83-5.3,11.73-7.95,17.6c-12.6-0.36-25.01-5.03-34.65-13.15c-13.14-10.79-20.66-27.5-21.35-44.37
			c-0.05-1.84,0.01-3.67,0.16-5.47C310.16,748.87,316.1,734.92,326.38,724.95z M343.31,731.97c-4.63,0.78-7.11,6.48-4.62,10.44
			c2.3,4.58,9.74,4.49,11.77-0.29C353.32,737.48,348.65,730.79,343.31,731.97z M372.47,748.8c3.32,4.27,9.69,4.6,13.61,0.97
			c5.04-5.22,1.92-15.02-5.44-15.83C372.84,732.6,367.57,742.92,372.47,748.8z M331.17,751.93c-3.72,1.26-4.15,7.12-0.35,8.54
			c2.93,1.64,6.01-1.18,6.71-3.98C336.93,753.66,334.28,750.78,331.17,751.93z M351.19,765.86c-4.27,2.45-3.9,9.55,0.59,11.55
			c3.72,2.28,8.92-0.69,9.09-4.99C361.88,767.35,355.55,763,351.19,765.86z M325.51,775.05c-2.66,0.71-3.61,3.91-2.79,6.31
			c0.5,1.84,2.67,2.24,4.1,3.15c1.41-0.9,3.41-1.35,4.04-3.08C332.93,778.24,329,773.4,325.51,775.05z M369.94,777.65
			c-2.61,0.92-3.95,4.49-2.25,6.8c1.38,2.76,5.78,2.86,7.37,0.22C377.6,781.39,374.02,775.94,369.94,777.65z M344.94,794.74
			c-1.67,1.87-3.45,4.01-3.23,6.7c-0.47,5.02,5.07,9.4,9.85,7.64c3.59-1.18,5.46-4.98,5.34-8.58
			C355.81,795.17,349.78,792.23,344.94,794.74z"/>
	</g>
	<path class="st0" d="M262.13,720.87c6.17-2.39,13.77,0.71,16.44,6.78c3.52,6.72,0.41,16.14-6.78,18.94
		c-7.88,3.74-17.86-2.7-18.29-11.25C252.68,729.27,256.38,722.99,262.13,720.87z"/>
	<path class="st0" d="M714.68,764.44c0.09-4.74,5.79-8.52,10.04-5.96c2.95,1.13,3.6,4.51,4.53,7.16c-0.95,1.49-1.71,3.11-2.8,4.52
		c-1.45,1.46-3.65,1.71-5.55,2.21C717.37,771.45,714.28,768.28,714.68,764.44z"/>
	<path class="st0" d="M694.06,793.76c2.83-1.24,6.39,1.59,6.02,4.67c0.3,3.86-4.97,5.98-7.63,3.38
		C689.82,799.52,690.85,794.95,694.06,793.76z"/>
</g>
<g>
	<path class="st1" d="M464.82,56.41c5.75-0.89,11.62-1.06,17.42-0.81C476.51,56.86,470.63,56.36,464.82,56.41z"/>
	<path class="st1" d="M514.36,55.61c5.56-0.27,11.18-0.09,16.69,0.73C525.47,56.45,519.85,56.81,514.36,55.61z"/>
	<path class="st1" d="M367.46,74.46c4.51-1.84,9.24-3.23,14.07-3.94l-1.26,0.46C376.06,72.36,371.82,73.66,367.46,74.46z"/>
	<path class="st1" d="M615.01,70.52c4.83,0.71,9.6,2.09,14.11,3.95c-4.38-0.81-8.64-2.12-12.87-3.5L615.01,70.52z"/>
	<path class="st1" d="M356.65,77.58c3.53-1.09,6.96-2.56,10.65-3.05c-6.17,2.67-12.85,3.96-19.05,6.6
		c-4.34,1.37-8.54,3.15-12.91,4.45C342.06,82.06,349.52,80.15,356.65,77.58z"/>
	<path class="st1" d="M629.22,74.52c6.72,1.3,13.08,3.99,19.58,6.07c4.13,1.66,8.59,2.66,12.42,5c-4.37-1.32-8.57-3.08-12.91-4.46
		C642.09,78.5,635.41,77.2,629.22,74.52z"/>
	<path class="st1" d="M325.57,89.38c3.05-1.64,6.25-3.16,9.69-3.76C332.11,87.08,328.96,88.58,325.57,89.38z"/>
	<path class="st1" d="M661.25,85.6c3.53,0.64,6.83,2.19,9.97,3.89C667.73,88.66,664.49,87.09,661.25,85.6z"/>
	<path class="st1" d="M367.69,189.81c0.18-1.73,0.23-3.93,2.05-4.8C369.97,186.8,369.28,188.84,367.69,189.81z"/>
	<path class="st1" d="M828.92,199.39c6.15,5.48,11.35,12.05,16.54,18.46l-0.66-0.36c-0.28-0.15-0.84-0.46-1.12-0.61
		C839.5,210.47,833.6,205.41,828.92,199.39z"/>
	<path class="st1" d="M353.88,216.58c0.21-1.97,1.05-4.02,3.05-4.75C356.53,213.69,355.98,215.97,353.88,216.58z"/>
	<path class="st1" d="M410.22,212.92c6.51,1.5,12.68,4.26,18.42,7.65c-1.78,1.47-3.81,2.58-5.96,3.43
		c-12.43-6.5-27.16-8.48-40.87-5.47c-15.31,3.14-28.91,12.62-37.99,25.23c1.7,3.11,3.43,6.2,5.19,9.28
		c-8.08,6.41-15.71,13.35-23.62,19.96c-4.17,4.21-8.76,7.95-13.5,11.5c-3.06,1.86-3.16,5.94-5.84,8.14
		c-3.18,2.83-5.83,6.2-9.14,8.88c-6.01,4.62-10.91,10.48-15.87,16.16c-6.84,10-15.58,18.49-22.87,28.15
		c-2.34,3.31-5.62,5.91-7.38,9.63c-3.04,5.83-7.5,10.85-10.04,16.96c-2.22,5.33-4.65,10.57-7.24,15.74
		c-0.78,1.66-2.01,3.05-3.36,4.28c0.61-4.61,1.57-9.98-1.37-14.02c-2.51-3.24-7.23-3.1-10.68-1.61
		c-8.15,3.35-14.21,10.15-19.32,17.1c3.35-20.53,11.96-39.76,21.05-58.33l-1.3-0.58c10.46-3.53,20.45-8.34,30.04-13.8
		c23.73-13.66,45-31.31,63.91-51.05c12.02-12.23,22.81-25.64,32.62-39.68c4.55-3.61,8.88-7.56,14.05-10.28
		c2.7-0.18,5.39-0.55,8.02-1.22c11.01-2.64,22.25-4.31,33.56-4.95C403.91,213.84,407.06,213.37,410.22,212.92z"/>
	<path class="st1" d="M350.81,221.7c0.16-1.98,1.05-3.88,2.98-4.66C353.57,218.94,352.85,221.1,350.81,221.7z"/>
	<path class="st1" d="M85.67,323.57c1.29-2.81,2.29-5.79,4.11-8.32c-4.25,10.25-8.61,20.46-12.82,30.73
		C79.01,338.23,82.63,330.97,85.67,323.57z"/>
	<path class="st1" d="M906.8,315.11c4.6,8.4,7.74,17.51,11.54,26.29c0.58,1.33,1.33,2.68,1.19,4.21c-2.15-3.95-3.34-8.31-5.18-12.39
		C912,327.12,908.88,321.32,906.8,315.11z"/>
	<path class="st1" d="M71.93,360.1c1.09-4.77,2.59-9.58,4.93-13.88c-0.12,0.41-0.36,1.22-0.48,1.63c-0.29,1.01-0.58,2.03-0.87,3.05
		C74.3,353.96,73.19,357.05,71.93,360.1z"/>
	<path class="st1" d="M919.85,346.38c2.27,4.19,3.64,9.07,4.78,13.74c-1.25-3.05-2.37-6.15-3.6-9.2
		C920.61,349.4,920.21,347.89,919.85,346.38z"/>
	<path class="st1" d="M66.83,376.19c1.08-5.45,2.74-10.86,5.04-15.91c-1.38,4.94-2.78,9.9-4.54,14.73L66.83,376.19z"/>
	<path class="st1" d="M924.64,360.14c2.31,5.11,3.99,10.56,5.1,16.07l-0.51-1.2C927.45,370.14,926.05,365.13,924.64,360.14z"/>
	<path class="st1" d="M59.82,403.23c1.07-6.85,2.63-13.77,5.11-20.25c-1.3,6.35-3.11,12.59-4.63,18.9L59.82,403.23z"/>
	<path class="st1" d="M931.64,383.02c2.45,6.47,4.05,13.35,5.07,20.19l-0.48-1.31C934.78,395.59,932.92,389.36,931.64,383.02z"/>
	<path class="st1" d="M200.33,428.74c8-2.4,13.93-8.77,19.14-14.97c-0.56,4.9-3.2,9.21-4.41,13.95c-2.32,6.24-3.3,12.87-5.67,19.09
		c-2.16,5.89-2.92,12.17-5.2,18.02c-2.35,6.2-2.45,13.06-5.4,19.06c-3.69-16.17-5.58-32.81-4.99-49.4
		c-0.05-2.29,0.39-4.87-1.27-6.72C194.92,429.02,197.71,429.63,200.33,428.74z"/>
	<path class="st1" d="M48.83,499.56c0.02-9.08-0.35-18.24,0.91-27.25C50.17,481.42,49.29,490.48,48.83,499.56z"/>
	<path class="st1" d="M48.83,503.34c0.16,8.13,1.62,16.22,0.7,24.36C48.54,519.63,48.81,511.46,48.83,503.34z"/>
	<path class="st1" d="M59.82,599.64c1.94,6.68,3.61,13.46,5.11,20.26C62.45,613.41,60.88,606.5,59.82,599.64z"/>
	<path class="st1" d="M66.83,626.69l0.5,1.19c1.53,3.9,2.57,7.98,3.58,12.04C69.04,635.69,67.63,631.24,66.83,626.69z"/>
	<path class="st1" d="M71.81,642.61c2.02,4.62,3.71,9.39,5.14,14.23C74.49,652.44,73.08,647.46,71.81,642.61z"/>
	<path class="st1" d="M76.96,656.86c4.13,10.26,8.59,20.39,12.72,30.63c-3.49-5.82-5.7-12.42-8.44-18.65
		C79.78,664.86,77.72,661.05,76.96,656.86z"/>
	<path class="st1" d="M207.02,841.38c0.58,0.36,1.72,1.06,2.3,1.42c15.72,13.11,32.31,25.22,49.7,36.05
		c2.7,1.68,5.48,3.27,7.97,5.28c-1.37,0.05-2.31-1.01-3.35-1.68C243.83,870.15,224.52,856.83,207.02,841.38z"/>
	<path class="st1" d="M335.73,917.5c4.27,1.15,8.32,2.94,12.53,4.26c6.2,2.63,12.87,3.91,19.03,6.6c-8.39-1.82-16.4-5.09-24.51-7.86
		C340.46,919.45,337.71,919.16,335.73,917.5z"/>
	<path class="st1" d="M367.45,928.43c4.37,0.79,8.62,2.09,12.83,3.48l1.26,0.45C376.71,931.65,371.97,930.26,367.45,928.43z"/>
</g>
<g>
	<path class="st2" d="M482.24,55.6c10.67-0.73,21.45-0.74,32.12,0.01c5.49,1.2,11.11,0.84,16.69,0.73
		c16.11,1.32,32.23,3.08,48.13,6.16c4.99,1.33,10.08,2.38,15.22,2.91l0.37,0.28c0.97,1,2.43,0.92,3.72,0.89l1.16,0.16
		c0.84,0.68,1.8,0.95,2.89,0.82l1.13,0.19c0.86,0.67,1.83,0.94,2.93,0.81c2.89,0.14,5.67,1.07,8.41,1.96l1.24,0.45
		c4.23,1.38,8.49,2.69,12.87,3.5l0.1,0.05c6.19,2.68,12.87,3.98,19.09,6.61c4.34,1.38,8.54,3.14,12.91,4.46l0.03,0.01
		c3.24,1.49,6.48,3.06,9.97,3.89l0.04,0.02c5.07,2.75,10.48,4.85,15.85,6.97l0.14,0.07c9.59,5.23,19.66,9.54,29.11,15.05
		c1.51,0.86,3.11,1.56,4.71,2.26c0.28,0.16,0.85,0.47,1.13,0.63c11.04,7.13,22.53,13.6,33.19,21.32
		c6.16,4.09,11.87,8.81,18.03,12.89l0.02,0.02c6.44,5.39,12.93,10.74,19.53,15.93c0.07,0.05,0.21,0.15,0.28,0.21
		c4.67,4.19,8.89,8.93,14.06,12.54l0.1,0.09c6.95,7.24,14.24,14.13,21.11,21.45c0.1,0.11,0.3,0.34,0.4,0.45
		c4.68,6.02,10.58,11.08,14.76,17.49c0.28,0.15,0.84,0.46,1.12,0.61c0.24,0.22,0.73,0.66,0.97,0.88
		c6.98,9.67,14.74,18.78,21.41,28.7c10.8,15.23,20.45,31.26,29.23,47.73c3.53,6.64,6.53,13.55,10.25,20.09l0.14,0.22
		c2.08,6.21,5.2,12.01,7.55,18.11c1.84,4.08,3.03,8.44,5.18,12.39l0.32,0.77c0.36,1.51,0.76,3.02,1.18,4.54
		c1.23,3.05,2.35,6.15,3.6,9.2l0.01,0.02c1.41,4.99,2.81,10,4.59,14.87l0.51,1.2c0.86,2.19,1.45,4.49,1.9,6.81
		c1.28,6.34,3.14,12.57,4.59,18.88l0.48,1.31c0.89,3.1,1.71,6.27,1.92,9.5c-0.1,1.32,0.07,2.68,0.78,3.84l0.26,0.61
		c0.83,5.79,1.57,11.63,2.98,17.31c4.17,26.12,5.48,52.62,5.1,79.05c-0.37-8.03-1.12-16.03-0.58-24.07
		c-1.67-4.81-1.22-9.99-1.97-14.96c-6.85-63.74-28.23-125.87-62.29-180.18c-38.53-61.91-93.1-113.66-156.81-149.09
		c-54.08-30.17-114.71-48.39-176.42-53.31c-18.93-1.06-37.96-2.49-56.9-0.62c-12.39,0.13-24.72,1.52-36.98,3.16
		c-31.17,4.09-61.79,11.82-91.36,22.43c5.47,4.46,9.79,10.38,11.5,17.3c2.53,8.09,1.45,16.59,0.97,24.88
		c-0.48,3.46-1.18,6.89-2.07,10.27c-1.16,0.83-1.54,1.93-1.14,3.29l0.11,0.85c-0.27,0.55-0.79,1.63-1.06,2.18l0.08,0.85
		c-0.27,0.55-0.8,1.64-1.07,2.19l0.08,0.82c-0.28,0.54-0.82,1.62-1.09,2.15l0.08,0.85c-0.29,0.5-0.86,1.5-1.15,2l0.06,0.5
		c-1.82,0.87-1.87,3.07-2.05,4.8l-0.25,0.77c-0.07,0.18-0.2,0.54-0.27,0.72c-1.13,2.89-2.42,5.72-3.91,8.44
		c-1.85,3.45-3.62,6.95-5.51,10.38l-0.29,0.54c-0.07,0.14-0.2,0.41-0.26,0.54l-0.27,0.63c-2,0.73-2.84,2.78-3.05,4.75l-0.09,0.46
		c-1.93,0.78-2.82,2.68-2.98,4.66c-1.58,3.12-3.65,5.96-5.71,8.77c-9.81,14.04-20.6,27.45-32.62,39.68
		c-18.91,19.74-40.18,37.39-63.91,51.05c-9.59,5.46-19.58,10.27-30.04,13.8c-10.21,3.37-20.95,5.76-31.76,5.1
		c-9.1-0.66-18.39-3.98-24.41-11.11c-5.77-6.78-7.96-15.83-8.25-24.55c-0.25-9.99,1.98-19.82,4.64-29.38
		c-39.82,56.5-65.55,122.85-74.08,191.45c-1.48,10.25-2,20.59-2.85,30.9c-0.17,17.7-0.7,35.44,0.51,53.1
		c5.32,80.48,34.38,159.13,82.37,223.92c42.91,58.26,100.66,105.47,166.32,135.86c26.92,12.46,55.07,22.45,84.05,28.81
		c-0.81,0.09-2.45,0.26-3.26,0.35c-10.16-2.05-20.32-4.22-30.27-7.09l-1.26-0.45c-4.21-1.39-8.46-2.69-12.83-3.48l-0.16-0.07
		c-6.16-2.69-12.83-3.97-19.03-6.6c-4.21-1.32-8.26-3.11-12.53-4.26l-0.8-0.31c-5.93-2.87-12.16-5.03-18.14-7.77
		c-9.9-4.17-19.39-9.22-29-13.99c-6.81-3.38-13.18-7.58-20.02-10.91l-0.78-0.39c-2.49-2.01-5.27-3.6-7.97-5.28
		c-17.39-10.83-33.98-22.94-49.7-36.05c-0.58-0.36-1.72-1.06-2.3-1.42l-0.03-0.1c-0.25-1.15-0.96-1.83-2.13-2.03
		c-0.07-0.02-0.21-0.06-0.28-0.08c-5.32-5.18-10.87-10.15-16.47-15.04c-15.03-14.32-28.99-29.72-41.99-45.89
		c-2.77-3.34-5.16-6.99-8.14-10.14l-0.07-0.08c-11.86-16.73-23.52-33.66-33.27-51.74c-5.37-9.08-9.49-18.82-14.62-28.02l-0.34-0.77
		c-4.13-10.24-8.59-20.37-12.72-30.63l-0.01-0.02c-1.43-4.84-3.12-9.61-5.14-14.23c-0.36-0.89-0.65-1.79-0.9-2.69
		c-1.01-4.06-2.05-8.14-3.58-12.04l-0.5-1.19c-0.89-2.19-1.47-4.49-1.9-6.79c-1.5-6.8-3.17-13.58-5.11-20.26
		c-0.82-3.1-1.72-6.22-1.89-9.43c0.07-1.36-0.08-2.74-0.78-3.91c-4.29-19.21-6.24-38.97-7.62-58.6c0.92-8.14-0.54-16.23-0.7-24.36
		c-0.04-1.27-0.04-2.52,0-3.78c0.46-9.08,1.34-18.14,0.91-27.25c1.38-18.67,3.31-37.45,7.4-55.71c0.7-1.19,0.86-2.56,0.79-3.9
		c0.19-3.22,1.04-6.37,1.89-9.47l0.48-1.35c1.52-6.31,3.33-12.55,4.63-18.9c0.44-2.31,1.01-4.61,1.9-6.79l0.5-1.18
		c1.76-4.83,3.16-9.79,4.54-14.73l0.06-0.18c1.26-3.05,2.37-6.14,3.58-9.2c0.29-1.02,0.58-2.04,0.87-3.05
		c0.12-0.41,0.36-1.22,0.48-1.63l0.1-0.24c4.21-10.27,8.57-20.48,12.82-30.73l0.04-0.09c5.02-9.23,9.15-18.92,14.52-27.95
		c0.9-1.55,1.71-3.16,2.35-4.83l0.36-0.79c4.75-6.9,8.65-14.34,13.35-21.27c0.09-0.23,0.26-0.69,0.35-0.92l0.31-0.77
		c9.78-13.12,18.66-27.05,29.62-39.29c0-0.19,0-0.57,0.01-0.76c0.23-0.32,0.69-0.94,0.92-1.25c12.97-14.01,25.27-28.74,39.69-41.36
		c3.55-2.81,6.47-6.33,10.06-9.09c2.37-1.84,4.61-3.87,6.54-6.17l0.75-0.3c0.25-0.1,0.77-0.3,1.03-0.41
		c4.14-4.07,9.05-7.24,13.3-11.2l0.15-0.11c3.42-2.13,6.56-4.67,9.81-7.04c15.1-11.02,30.9-21.09,47.28-30.09
		c10.11-5.78,20.78-10.48,31.07-15.93l0.31-0.14c4.71-1.75,9.44-3.57,13.81-6.06l0.16-0.05c3.39-0.8,6.54-2.3,9.69-3.76l0.08-0.04
		c4.37-1.3,8.57-3.08,12.91-4.45c6.2-2.64,12.88-3.93,19.05-6.6l0.16-0.07c4.36-0.8,8.6-2.1,12.81-3.48l1.26-0.46
		c2.71-0.88,5.48-1.79,8.35-1.96c1.1,0.12,2.09-0.14,3-0.79l1.13-0.21c1.07,0.14,2.03-0.14,2.88-0.82l1.17-0.15
		c1.27,0.02,2.75,0.11,3.72-0.91l0.34-0.27c5.17-0.51,10.27-1.6,15.29-2.92c15.65-3.01,31.53-4.8,47.41-6.08
		C470.63,56.36,476.51,56.86,482.24,55.6z"/>
	<path class="st2" d="M218.1,376.81c3.45-1.49,8.17-1.63,10.68,1.61c2.94,4.04,1.98,9.41,1.37,14.02
		c-2.16,7.72-5.91,14.91-10.68,21.33c-5.21,6.2-11.14,12.57-19.14,14.97c-2.62,0.89-5.41,0.28-7.8-0.97
		c-1.03-1.41-1.99-2.88-2.73-4.46c-0.91-4.59,0.06-9.22,1.05-13.7c0.22-0.58,0.67-1.73,0.89-2.3c1.58-3.82,3.4-7.54,5.51-11.1
		l0.1-0.18l0.13-0.19c0.32-0.48,0.97-1.44,1.3-1.93C203.89,386.96,209.95,380.16,218.1,376.81z"/>
</g>
<g>
	<path class="st3" d="M402.12,65.41c4.98-1.42,10.11-2.51,15.29-2.92C412.39,63.81,407.29,64.9,402.12,65.41z"/>
	<path class="st3" d="M579.18,62.5c5.15,0.41,10.26,1.48,15.22,2.91C589.26,64.88,584.17,63.83,579.18,62.5z"/>
	<path class="st3" d="M311.6,95.49c4.29-2.6,9.03-4.54,13.81-6.06C321.04,91.92,316.31,93.74,311.6,95.49z"/>
	<path class="st3" d="M671.26,89.51c5.48,1.75,10.88,4.05,15.85,6.97C681.74,94.36,676.33,92.26,671.26,89.51z"/>
	<path class="st3" d="M307.84,96.83c1.11-0.48,2.26-0.88,3.45-1.2c-10.29,5.45-20.96,10.15-31.07,15.93
		c-16.38,9-32.18,19.07-47.28,30.09c-3.25,2.37-6.39,4.91-9.81,7.04c2.26-2.52,5.14-4.34,7.83-6.35
		C254.99,124.67,280.79,109.41,307.84,96.83z"/>
	<path class="st3" d="M722.2,114.49c13.06,6.66,25.18,15.09,37.24,23.4c4.65,3.6,9.86,6.57,13.98,10.81
		c-6.16-4.08-11.87-8.8-18.03-12.89C744.73,128.09,733.24,121.62,722.2,114.49z"/>
	<path class="st3" d="M212.56,156.59c3.51-2.54,6.53-5.83,10.42-7.79c-4.25,3.96-9.16,7.13-13.3,11.2
		c-0.26,0.11-0.78,0.31-1.03,0.41C209.06,158.57,211.38,157.92,212.56,156.59z"/>
	<path class="st3" d="M773.44,148.72c4.45,2.35,8,6.08,12.02,9.09c2.56,2.21,5.43,4.12,7.51,6.84
		C786.37,159.46,779.88,154.11,773.44,148.72z"/>
	<path class="st3" d="M205.88,160.89c0.5-0.04,1.51-0.14,2.02-0.18c-1.93,2.3-4.17,4.33-6.54,6.17c-3.59,2.76-6.51,6.28-10.06,9.09
		c-14.42,12.62-26.72,27.35-39.69,41.36c0.15-0.52,0.45-1.55,0.6-2.07c2.35-0.95,3.54-3.34,5.18-5.11
		c13.95-16.02,28.99-31.1,45.05-45.01C203.73,163.88,205.76,162.95,205.88,160.89z"/>
	<path class="st3" d="M793.25,164.86c2.59,1.33,4.52,3.56,6.69,5.46c2.46,2.36,5.32,4.32,7.37,7.08
		C802.14,173.79,797.92,169.05,793.25,164.86z"/>
	<path class="st3" d="M613.83,235.15c2.45-6.51,4.83-13.04,7.27-19.56c2.26,1.31,4.59,2.53,7.06,3.42c7.95,2.81,15.7,6.2,23.9,8.26
		c5.3,2.91,10.82,5.45,16.09,8.44c-6.65,4.11-13.18,8.39-19.58,12.86c-4.74-2.92-10.36-3.53-15.46-5.57
		C626.62,240.54,620.06,238.24,613.83,235.15z"/>
	<path class="st3" d="M148.41,218.58c0.57,0,1.71,0,2.28,0c-0.01,0.19-0.01,0.57-0.01,0.76c-10.96,12.24-19.84,26.17-29.62,39.29
		c0-0.62,0.01-1.86,0.02-2.48l1.27-0.02c8.53-12.44,17.23-24.81,27.04-36.29L148.41,218.58z"/>
	<path class="st3" d="M845.77,218.37l-0.36-0.54c21.25,24.87,39.06,52.61,54.09,81.64c2.43,5.11,5.4,10.01,7.16,15.42
		c-3.72-6.54-6.72-13.45-10.25-20.09c-8.78-16.47-18.43-32.5-29.23-47.73C860.51,237.15,852.75,228.04,845.77,218.37z"/>
	<path class="st3" d="M119.07,259.31c0.42,0.02,1.26,0.07,1.68,0.09c-0.09,0.23-0.26,0.69-0.35,0.92
		c-4.7,6.93-8.6,14.37-13.35,21.27c3.35-7.22,8.12-13.79,12.2-20.65L119.07,259.31z"/>
	<path class="st3" d="M90.02,688.26c5.13,9.2,9.25,18.94,14.62,28.02c9.75,18.08,21.41,35.01,33.27,51.74
		c-1.78-1.51-3.04-3.48-4.4-5.34c-13.07-17.92-24.75-36.85-35.02-56.5C95.63,700.24,92.11,694.48,90.02,688.26z"/>
	<path class="st3" d="M137.98,768.1c2.98,3.15,5.37,6.8,8.14,10.14c13,16.17,26.96,31.57,41.99,45.89
		c5.6,4.89,11.15,9.86,16.47,15.04c-6.77-4.92-12.7-10.94-18.81-16.64c-15.52-14.9-30-30.88-43.22-47.85
		C140.95,772.54,139.04,770.57,137.98,768.1z"/>
	<path class="st3" d="M267.77,884.52c6.84,3.33,13.21,7.53,20.02,10.91c9.61,4.77,19.1,9.82,29,13.99
		c5.98,2.74,12.21,4.9,18.14,7.77c-1.95-0.08-3.66-1.14-5.44-1.77c-20.23-8.13-39.83-17.77-58.69-28.69
		C269.77,886,268.11,885.92,267.77,884.52z"/>
</g>
<g>
	<path class="st4" d="M398.06,66.59c-0.26-1.72,2.77-1.86,3.72-0.91C400.81,66.7,399.33,66.61,398.06,66.59z"/>
</g>
<g>
	<path class="st5" d="M594.77,65.69c0.92-0.98,3.93-0.83,3.72,0.89C597.2,66.61,595.74,66.69,594.77,65.69z"/>
</g>
<g>
	<path class="st6" d="M394.01,67.56c0.37-1.6,1.33-1.87,2.88-0.82C396.04,67.42,395.08,67.7,394.01,67.56z"/>
	<path class="st6" d="M599.65,66.74c1.54-1.05,2.51-0.78,2.89,0.82C601.45,67.69,600.49,67.42,599.65,66.74z"/>
</g>
<g>
	<path class="st7" d="M389.88,68.56c0.47-1.6,1.47-1.86,3-0.79C391.97,68.42,390.98,68.68,389.88,68.56z"/>
</g>
<g>
	<path class="st8" d="M603.67,67.75c1.54-1.06,2.52-0.79,2.93,0.81C605.5,68.69,604.53,68.42,603.67,67.75z"/>
</g>
<g>
	<path class="st9" d="M492.78,91.29c18.94-1.87,37.97-0.44,56.9,0.62c61.71,4.92,122.34,23.14,176.42,53.31
		c63.71,35.43,118.28,87.18,156.81,149.09c34.06,54.31,55.44,116.44,62.29,180.18c0.75,4.97,0.3,10.15,1.97,14.96
		c-0.54,8.04,0.21,16.04,0.58,24.07c-0.27,9.61,0.89,19.37-0.98,28.83c0.5,15.67-2.24,31.2-4.44,46.62
		c-1.88,10.34-2.99,20.91-6.31,30.93c-0.26,1.36-0.37,2.78-1.03,4.03c-0.24,1.33-0.14,2.8-0.95,3.97
		c-2.84,12.21-6.25,24.35-10.97,35.97c-1.26,3.69-2.34,7.47-4.03,11.01c-3.37,10.04-7.86,19.67-12.54,29.17
		c-6.07,13.46-13.13,26.48-21.01,38.98c-10.27,17.6-22.59,33.88-35.22,49.83c-12.89,15.07-26.16,29.89-40.95,43.15
		c-4.49,3.46-8.17,7.83-12.73,11.22c-8.25,7.48-17.34,13.97-26.22,20.68c-15.48,11.65-32.18,21.54-49.04,31.04
		c-7.64,3.76-15.07,8-22.97,11.17c-0.5,0.27-1.49,0.79-1.98,1.05c-8.21,3.93-16.51,7.73-25.17,10.56c-2.55,1.29-5.3,2.06-7.98,3.01
		c-0.99,0.38-1.99,0.71-3,1c-11.66,4.65-23.76,8.17-35.99,10.96c-1.16,0.86-2.65,0.69-3.99,0.94c-1.15,0.92-2.68,0.75-4.04,1.02
		c-14.72,4.68-30.27,5.89-45.37,8.63c-6.34,0.72-12.65,1.74-19.02,2.08c-4.35,0.28-8.82-0.49-13.03,0.94
		c-11.67,0.07-23.36,0.59-35.03,0.13c-5.97-0.18-12.05,0.6-17.89-0.96c-11.97,0.5-23.75-2-35.57-3.25l-1-0.69
		c-4.25,0.2-8.27-1.24-12.48-1.51c-2.67-0.82-5.78-0.18-8.13-1.83c-0.96-1.29-1.53-1.2-1.72,0.25c-0.73-0.11-2.19-0.34-2.91-0.45
		l-0.38-0.73c-0.27-1.35-2.53-1.41-2.75-0.02c-0.79-0.08-2.37-0.24-3.16-0.31l0.2-0.24c2.03-1.62-1.99-2.25-1.87-0.28
		c-1.46-0.28-2.89-0.54-4.29-0.97c0.81-0.09,2.45-0.26,3.26-0.35c-28.98-6.36-57.13-16.35-84.05-28.81
		c-65.66-30.39-123.41-77.6-166.32-135.86c-47.99-64.79-77.05-143.44-82.37-223.92c-1.21-17.66-0.68-35.4-0.51-53.1
		c0.85-10.31,1.37-20.65,2.85-30.9c8.53-68.6,34.26-134.95,74.08-191.45c-2.66,9.56-4.89,19.39-4.64,29.38
		c0.29,8.72,2.48,17.77,8.25,24.55c-0.88,1.47-1.75,2.96-2.51,4.51c-15.95,34.29-26.38,71.07-31.63,108.5
		c-2.74,18.37-3.72,36.92-4.43,55.45c-0.43,38.24,3.04,76.67,12.24,113.85c2.11,8.2,4.09,16.47,7.12,24.39
		c-3.6,5.91-1.3,12.72,0.56,18.76c17.93,67.76,56.74,129.5,108.82,176.24c23.48,21.22,49.63,39.4,77.32,54.68
		c3.72,2.09,8.23,4.19,12.51,2.46c4.56-1.68,5.96-6.77,8.24-10.55c2.44-5.15,6.22-9.74,7.5-15.37c1.07-0.14,2.19-0.44,3.24,0.02
		c36.34,14.14,74.61,23.29,113.4,27.18c15.94,1.77,31.98,1.53,47.98,1.43c15.89,0.22,31.72-1.84,47.35-4.59
		c42.3-7.78,83-23.05,120.97-43.11c2.8,5.81,5.9,11.47,9.24,16.99c2.68,4.67,9.12,6.04,13.84,3.84
		c53.5-32.11,96.77-80.13,125.59-135.3c8.89-16.64,16.01-34.14,22.75-51.74c2.31-3.03,4.11-6.4,5.73-9.84
		c20.91-41.74,33.15-87.77,35.91-134.37c1.26-12.97,0.37-26,0.69-39c-1.83-64.95-21.18-129.05-54.08-184.98
		c-19.52-33.25-43.34-64.06-71.16-90.8c-6.04-5.94-12.31-11.68-19-16.89c-21.13,3.71-41.71,10.23-61.32,18.88
		c-10.69,4.7-21.09,10.06-31.08,16.08c-5.27-2.99-10.79-5.53-16.09-8.44c-8.2-2.06-15.95-5.45-23.9-8.26
		c-2.47-0.89-4.8-2.11-7.06-3.42c2.51-5.43,5.38-12.55,0.42-17.57c3.46-1.84,6.96-3.58,10.44-5.38c-0.57-0.22-1.71-0.67-2.28-0.89
		c3.9,1.09,7.85-0.32,10.7-3.05c22.26-8.71,45.08-16.3,68.65-20.57c-14.27-11.44-31.02-19.3-47.84-26.22
		c-49.63-19.39-103.42-25.61-156.38-25.49c-42.65,0.97-84.94,9.69-125.07,23.96c-2.49,0.4-1.91,3.03-2.01,4.88
		c-0.14,4.6,0.72,9.35-0.82,13.8c0.48-8.29,1.56-16.79-0.97-24.88c-1.71-6.92-6.03-12.84-11.5-17.3
		c29.57-10.61,60.19-18.34,91.36-22.43C468.06,92.81,480.39,91.42,492.78,91.29z"/>
</g>
<g>
	<path class="st10" d="M687.25,96.55c5.46,1.64,10.34,4.73,15.5,7.1c6.13,3.34,12.63,6.15,18.32,10.21c-1.6-0.7-3.2-1.4-4.71-2.26
		C706.91,106.09,696.84,101.78,687.25,96.55z"/>
	<path class="st10" d="M407.23,232.97c3.31-1.24,7.16,2.05,6.48,5.54c-0.09,3.56-4.83,6.13-7.69,3.71
		C402.58,240.06,403.41,234.25,407.23,232.97z"/>
	<path class="st10" d="M325.39,273c7.91-6.61,15.54-13.55,23.62-19.96c5.49,9.66,10.9,19.37,16.38,29.03
		c-3.5,2.02-6.73,4.49-9.41,7.51c-5.23,5.84-11.81,10.26-16.9,16.25c-5.71,6.91-12.4,12.91-18.63,19.34
		c-2.72,2.93-4.89,6.39-8.09,8.85c-3.21,2.45-5.92,5.47-8.16,8.82c-2.87,4.38-6.99,7.73-10.03,11.98c-2.07,2.88-5.23,4.86-6.92,8.03
		c-4.68,9.13-11.28,17.17-15.51,26.54c-2.31,4.82-6.27,8.53-9.12,13c-3.27,4.48-5.47,9.64-8.83,14.06c-2.4,2.95-2.6,6.83-3.67,10.33
		c-2.31,7.19-4.42,14.45-6.51,21.71c-4.2,20.61-10.36,40.74-15.43,61.12c-1.31,5.79-3.43,11.89-1.51,17.8
		c3.7,13.82,8.68,27.35,10.9,41.53c-9.94-13.14-17.87-27.69-24.72-42.65c-5.95-13.66-11.02-27.78-14.06-42.4
		c2.95-6,3.05-12.86,5.4-19.06c2.28-5.85,3.04-12.13,5.2-18.02c2.37-6.22,3.35-12.85,5.67-19.09c1.21-4.74,3.85-9.05,4.41-13.95
		c4.77-6.42,8.52-13.61,10.68-21.33c1.35-1.23,2.58-2.62,3.36-4.28c2.59-5.17,5.02-10.41,7.24-15.74c2.54-6.11,7-11.13,10.04-16.96
		c1.76-3.72,5.04-6.32,7.38-9.63c7.29-9.66,16.03-18.15,22.87-28.15c4.96-5.68,9.86-11.54,15.87-16.16
		c3.31-2.68,5.96-6.05,9.14-8.88c2.68-2.2,2.78-6.28,5.84-8.14C316.63,280.95,321.22,277.21,325.39,273z"/>
	<path class="st10" d="M939.67,417.16c1.7,5.59,2.55,11.49,2.98,17.31C941.24,428.79,940.5,422.95,939.67,417.16z"/>
</g>
<g>
	<path class="st11" d="M379.74,140.38c40.13-14.27,82.42-22.99,125.07-23.96c52.96-0.12,106.75,6.1,156.38,25.49
		c16.82,6.92,33.57,14.78,47.84,26.22c-23.57,4.27-46.39,11.86-68.65,20.57c4.02-7.9,7.35-16.13,10.14-24.54
		c1.53-4.99-0.73-10.61-4.82-13.69c-3.71-2.77-8.35-3.69-12.59-5.34c-40.02-14.76-82.7-22.13-125.34-22.07
		c-44.2-0.25-88.32,7.74-130.04,22.2C377.83,143.41,377.25,140.78,379.74,140.38z"/>
	<path class="st11" d="M366.45,199.12c44.54-18.85,92.96-28.18,141.28-28.31c41.42,0.32,82.84,7.23,121.95,20.94
		c0.57,0.22,1.71,0.67,2.28,0.89c-3.48,1.8-6.98,3.54-10.44,5.38c-4.59-3.85-10.56-5.25-16.08-7.22
		c-33.4-10.64-68.54-15.7-103.57-15.55c-46.36-0.05-92.74,9.96-134.82,29.48c-3.2,1.6-6.77,2.74-9.3,5.39
		c1.89-3.43,3.66-6.93,5.51-10.38C364.34,199.63,365.43,199.55,366.45,199.12z"/>
	<g>
		<path class="st11" d="M263.03,715.83c9.18-2.07,18.86,4.51,20.9,13.58c2.79,9.55-3.93,20.48-13.66,22.43
			c-9.06,2.16-18.65-4.47-20.69-13.38C246.74,728.89,253.2,717.84,263.03,715.83z M262.13,720.87c-5.75,2.12-9.45,8.4-8.63,14.47
			c0.43,8.55,10.41,14.99,18.29,11.25c7.19-2.8,10.3-12.22,6.78-18.94C275.9,721.58,268.3,718.48,262.13,720.87z"/>
	</g>
	<path class="st11" d="M771.68,722.5c1.3-1.07,2.68-2.03,4.06-2.99c0.13,0.5,0.4,1.52,0.53,2.03c-1.59,5.86-6.13,10.84-11.99,12.59
		c0.33-1.7,0.7-3.38,1.11-5.05C768.08,727.53,770.03,725.08,771.68,722.5z"/>
	<path class="st11" d="M341.71,801.44c-0.22-2.69,1.56-4.83,3.23-6.7c4.1,1.68,7.94,3.9,11.96,5.76c0.12,3.6-1.75,7.4-5.34,8.58
		C346.78,810.84,341.24,806.46,341.71,801.44z"/>
</g>
<g>
	<path class="st12" d="M373.7,172.62c-0.4-1.36-0.02-2.46,1.14-3.29C375.29,170.77,374.91,171.86,373.7,172.62z"/>
</g>
<g>
	<path class="st13" d="M372.75,175.65c0.27-0.55,0.79-1.63,1.06-2.18C373.54,174.02,373.02,175.1,372.75,175.65z"/>
</g>
<g>
	<path class="st14" d="M371.76,178.69c0.27-0.55,0.8-1.64,1.07-2.19C372.56,177.05,372.03,178.14,371.76,178.69z"/>
	<path class="st14" d="M426.97,942.45c0.19-1.45,0.76-1.54,1.72-0.25C428.26,942.26,427.4,942.39,426.97,942.45z"/>
</g>
<g>
	<path class="st15" d="M807.41,177.49c2.69,1.69,4.72,4.18,7.02,6.33c5.09,5.07,10.22,10.12,15,15.48l-0.91-0.36
		C821.65,191.62,814.36,184.73,807.41,177.49z"/>
	<path class="st15" d="M646.79,433.46c0.32-14.06-1.23-28.06-1.71-42.09c6.16,11.39,10.54,23.64,15.02,35.77
		c14.68,42.94,21.79,89.17,15.57,134.39c-0.43,4.32-2.05,8.57-1.26,12.95c-20.6-3.19-41.22-6.2-61.83-9.31
		c16.22-26.56,26.06-56.69,30.67-87.38C645.7,463.15,646.53,448.28,646.79,433.46z"/>
	<path class="st15" d="M590.31,622.96c4.32-1.09,7.96,4.62,5.16,8.13c-1.98,3.13-7.12,2.57-8.52-0.78
		C585.31,627.53,587.24,623.65,590.31,622.96z"/>
</g>
<g>
	<path class="st16" d="M370.75,181.66c0.27-0.53,0.81-1.61,1.09-2.15C371.56,180.05,371.02,181.13,370.75,181.66z"/>
</g>
<g>
	<path class="st17" d="M369.68,184.51c0.29-0.5,0.86-1.5,1.15-2c-0.09,0.44-0.27,1.33-0.35,1.77L369.68,184.51z"/>
</g>
<g>
	<path class="st18" d="M367.17,191.3c0.07-0.18,0.2-0.54,0.27-0.72C367.37,190.76,367.24,191.12,367.17,191.3z"/>
</g>
<g>
	<path class="st19" d="M468.1,203.61c2.72-8.49,11.68-14.61,20.63-13.4c8.5,0.8,15.66,7.92,17.17,16.22
		c1.69,7.43-1.47,15.43-7.25,20.26c-1.79-0.86-3.57-1.7-5.35-2.55c4.76-2.84,8.26-7.95,8.03-13.64c0.35-8.23-7.11-16.05-15.47-15.32
		c-8.29,0.1-14.71,8.33-13.95,16.34c0.23,2.89,1.41,5.59,2.88,8.06c-1.95-0.12-3.91-0.22-5.85-0.31l-0.11-0.01
		C466.86,214.3,466.17,208.7,468.1,203.61z"/>
	<path class="st19" d="M597.84,204.31c3.1-1.71,6.6-0.15,9.11,1.88c-0.52,0.3-1.56,0.9-2.07,1.2c-2.06-0.5-4.44-1.77-6.37-0.26
		c-2.38,1.39-2.93,4.38-2.28,6.88c-0.88,0.52-1.6,1.2-2.16,2.05C591.98,211.89,593.43,206.27,597.84,204.31z"/>
	<path class="st19" d="M189.8,423.31c0.74,1.58,1.7,3.05,2.73,4.46c1.66,1.85,1.22,4.43,1.27,6.72c-0.59,16.59,1.3,33.23,4.99,49.4
		c3.04,14.62,8.11,28.74,14.06,42.4c6.85,14.96,14.78,29.51,24.72,42.65c9.14,13.17,20.24,24.9,32.26,35.47
		c2.06,1.87,4.14,3.87,6.87,4.71c-24.85,6.12-49.68,12.38-74.52,18.56c-7.23-18.65-13.48-37.76-16.87-57.5
		c-1.14-11.26-1.43-22.73-4.37-33.7c-2.1-12.23-1.29-24.73,1.11-36.85c1.52-6.86,0.07-13.93,1.15-20.85
		c1.34-15.44,3.17-30.9,7-45.94C191.04,429.68,190.29,426.44,189.8,423.31z"/>
	<path class="st19" d="M331.17,751.93c3.11-1.15,5.76,1.73,6.36,4.56c-0.7,2.8-3.78,5.62-6.71,3.98
		C327.02,759.05,327.45,753.19,331.17,751.93z"/>
</g>
<g>
	<g>
		<path class="st20" d="M550.12,200.92c5.9-2.83,13.35,1.08,14.93,7.28c2.27,6.66-3.15,14.71-10.33,14.61
			c-6.42,0.22-11.93-5.99-11.18-12.32C543.73,206.41,546.31,202.49,550.12,200.92z M551.15,203.78c-5.9,2.46-6.28,12.03-0.33,14.64
			c4.83,2.9,11.48-1.45,11.19-6.96C562.52,205.95,556.2,201.4,551.15,203.78z"/>
	</g>
</g>
<g>
	<path class="st21" d="M699.23,219.63c19.61-8.65,40.19-15.17,61.32-18.88c6.69,5.21,12.96,10.95,19,16.89
		c27.82,26.74,51.64,57.55,71.16,90.8c32.9,55.93,52.25,120.03,54.08,184.98c-0.32,13,0.57,26.03-0.69,39
		c-2.76,46.6-15,92.63-35.91,134.37c-1.62,3.44-3.42,6.81-5.73,9.84c6.26-19.3,11.94-38.82,15.81-58.76
		c1-5.48,3.16-11.68,0.03-16.86c-2.74-4.69-8.81-4.59-13.45-5.89c-5.85-0.96-11.71-3.89-17.7-2.25c0.12-5.93,3.1-11.31,4-17.12
		c2.79-14.2,5.81-28.4,7.33-42.8c5.68-39.51,2.61-80.19-8.77-118.44c-15.33-52.02-43.47-99.21-75.56-142.54
		c-1.07-1.36-2.28-2.61-3.48-3.84c2.11,7.44,6.02,14.21,8.2,21.63c-4.63-2.83-7.02-7.87-10.79-11.59
		c-4.53-5.15-10.42-8.8-15.28-13.61c-7.95-5.7-13.2-14.51-21.89-19.24c-5.54-2.95-10.39-6.98-15.67-10.35
		c-0.45-1.51-0.66-3.11-1.39-4.51C709.12,226.65,703.16,224.42,699.23,219.63z"/>
	<path class="st21" d="M186.77,340.1c10.81,0.66,21.55-1.73,31.76-5.1l1.3,0.58c-9.09,18.57-17.7,37.8-21.05,58.33
		c-0.33,0.49-0.98,1.45-1.3,1.93c-0.06,0.09-0.18,0.28-0.23,0.37c-2.11,3.56-3.93,7.28-5.51,11.1c-0.22,0.57-0.67,1.72-0.89,2.3
		c-0.99,4.48-1.96,9.11-1.05,13.7c0.49,3.13,1.24,6.37,0.4,9.53c-3.83,15.04-5.66,30.5-7,45.94c-1.08,6.92,0.37,13.99-1.15,20.85
		c-2.4,12.12-3.21,24.62-1.11,36.85c2.94,10.97,3.23,22.44,4.37,33.7c3.39,19.74,9.64,38.85,16.87,57.5
		c-4.36,1.34-9.93,1.23-12.8,5.37c-2.84,3.85-1.61,8.92-0.44,13.15c9.09,32.01,23.67,62.35,41.94,90.11
		c27.66,42.03,65.39,77.65,109.87,101.36c4.37,2.3,9.09,5.64,14.3,4.06c4.14-1.12,5.67-5.5,6.98-9.1
		c-15.93-0.9-31.06-8.96-41.51-20.89c-9.64-10.72-15.25-24.75-16.42-39.06c0.12-2.38,0.42-4.74,0.68-7.09
		c1.39,0.98,2.78,1.96,4.17,2.96c0.69,16.87,8.21,33.58,21.35,44.37c9.64,8.12,22.05,12.79,34.65,13.15
		c2.65-5.87,5.23-11.77,7.95-17.6c54.66,24.19,115.39,32.63,174.8,29.17c26.58-1.4,53.22-5.12,78.53-13.6
		c12.96-3.64,25.31-9.13,37.51-14.78c4.63-2.14,9.06-4.67,13.48-7.21c2.62,4.4,5.11,8.89,7.56,13.4c1.38,2.63,3.91,4.83,6.97,5.1
		c3.83,0.32,7.18-1.95,10.29-3.87c20.75-13.74,39.21-30.7,55.92-49.1c18.54-20.81,34.55-43.92,47.05-68.85
		c10.75-21.13,18.6-43.62,24.44-66.57c4-3.34,4.33-9.23,7.8-13.08c-10.84,50.07-33.6,97.41-65.11,137.73
		c-21.75,27.78-47.88,52.07-76.98,72c-2.15,1.51-4.34,3.3-5.19,5.89c-0.95,2.72-0.08,5.62,1.07,8.14
		c-37.97,20.06-78.67,35.33-120.97,43.11c-15.63,2.75-31.46,4.81-47.35,4.59c-16,0.1-32.04,0.34-47.98-1.43
		c-38.79-3.89-77.06-13.04-113.4-27.18c-1.05-0.46-2.17-0.16-3.24-0.02c0.98-5.07-1.85-10.08-6.31-12.43
		c-29.32-14.36-55.57-34.41-78.95-57.07c-43.38-42.43-75.21-96.27-92.57-154.34c-1.14-3.98-2.37-8.91-6.86-10.28
		c-4.86-1.29-9.84,0.62-14.64,1.45c-3.41-13.25-6.93-26.51-11.68-39.35c-2.18-4.38-2.29-9.33-2.95-14.08
		c-1.08-10.45-4.32-20.49-6.94-30.62c-1.33-7.43-1.24-15.03-1.93-22.53c0.38-6.66,2.61-13.09,4-19.6c3.06-8.18,2.95-17.01,3.38-25.6
		c0.14-6.75,3.34-12.84,4.94-19.28c1.74-7.09,4.59-13.89,5.68-21.14c0.55-3.47,0.25-7.1,1.58-10.41c1.86-4.7,2.38-9.87,4.84-14.33
		c2.99-5.2,3.06-11.36,5.16-16.87c3-8.07,4.71-16.6,8.45-24.39C177.7,360.69,183.25,350.83,186.77,340.1z"/>
	<path class="st21" d="M729.25,765.64c0.54-0.14,1.62-0.42,2.16-0.56c-0.28,6.06-5.73,10.87-11.82,10.09c0.33-0.7,0.98-2.1,1.31-2.8
		c1.9-0.5,4.1-0.75,5.55-2.21C727.54,768.75,728.3,767.13,729.25,765.64z"/>
	<g>
		<path class="st21" d="M692.21,792.02c4.61-3.08,10.94,1.14,10.46,6.48c0.11,5.41-7.14,9.1-11.25,5.35
			C687.46,800.97,687.97,794.38,692.21,792.02z M694.06,793.76c-3.21,1.19-4.24,5.76-1.61,8.05c2.66,2.6,7.93,0.48,7.63-3.38
			C700.45,795.35,696.89,792.52,694.06,793.76z"/>
	</g>
	<path class="st21" d="M204.86,839.25c1.17,0.2,1.88,0.88,2.13,2.03C205.37,841.5,204.66,840.83,204.86,839.25z"/>
</g>
<g>
	<path class="st22" d="M604.88,207.39c0.51-0.3,1.55-0.9,2.07-1.2c2.98,3.95,2.4,10.72-2.46,12.88c-3.66,2.17-8.12,0.17-10.42-3.01
		c0.56-0.85,1.28-1.53,2.16-2.05c1.71,3,6.23,4.46,8.68,1.5C607.21,213.24,606.1,209.88,604.88,207.39z"/>
	<path class="st22" d="M371.94,236.67c5.67-2.7,12.6,2.78,11.63,8.88c-0.11,5.92-7.48,9.95-12.48,6.66
		C365.21,249.05,365.76,239.18,371.94,236.67z"/>
</g>
<g>
	<path class="st23" d="M357.2,211.2c0.06-0.13,0.19-0.4,0.26-0.54l-0.15,0.28L357.2,211.2z"/>
</g>
<g>
	<path class="st24" d="M359.15,220.19c15.03-9.28,34.05-12,51.07-7.27c-3.16,0.45-6.31,0.92-9.49,1.1
		c-11.31,0.64-22.55,2.31-33.56,4.95C364.54,219.64,361.85,220.01,359.15,220.19z"/>
	<path class="st24" d="M159.85,333.5c0.76-1.55,1.63-3.04,2.51-4.51c6.02,7.13,15.31,10.45,24.41,11.11
		c-3.52,10.73-9.07,20.59-13.47,30.94c-3.74,7.79-5.45,16.32-8.45,24.39c-2.1,5.51-2.17,11.67-5.16,16.87
		c-2.46,4.46-2.98,9.63-4.84,14.33c-1.33,3.31-1.03,6.94-1.58,10.41c-1.09,7.25-3.94,14.05-5.68,21.14
		c-1.6,6.44-4.8,12.53-4.94,19.28c-0.43,8.59-0.32,17.42-3.38,25.6c-1.39,6.51-3.62,12.94-4,19.6c0.69,7.5,0.6,15.1,1.93,22.53
		c2.62,10.13,5.86,20.17,6.94,30.62c0.66,4.75,0.77,9.7,2.95,14.08c4.75,12.84,8.27,26.1,11.68,39.35
		c-5.38,1.55-11.84,1.73-15.62,6.45c-3.03-7.92-5.01-16.19-7.12-24.39c-9.2-37.18-12.67-75.61-12.24-113.85
		c0.71-18.53,1.69-37.08,4.43-55.45C133.47,404.57,143.9,367.79,159.85,333.5z"/>
	<g>
		<path class="st24" d="M205.11,638.83c5.42-2.9,12.08,3.18,10,8.81c-1.21,4.92-8.14,6.96-11.6,3.12
			C199.76,647.52,200.79,641.05,205.11,638.83z M206.96,640.65c-3.35,0.77-4.53,5.35-2.31,7.84c1.88,2.44,6.03,2.09,7.52-0.61
			C214.65,644.55,210.87,639.28,206.96,640.65z"/>
	</g>
	<g>
		<path class="st24" d="M228.15,671.91c5.36-2.56,12.28,0.83,13.64,6.57c2,5.87-2.71,12.95-8.98,13.06
			c-6.35,0.59-11.78-6.15-10.39-12.23C223.04,676.12,225.16,673.23,228.15,671.91z M229.12,674.95c-6.06,2.53-4.76,12.88,1.72,13.78
			c4.33,1.01,8.72-2.89,8.27-7.29C239.54,676.41,233.55,672.53,229.12,674.95z"/>
	</g>
</g>
<g>
	<path class="st25" d="M468.94,219.27c1.94,0.09,3.9,0.19,5.85,0.31c4.27,5.5,12.16,7.75,18.51,4.56c1.78,0.85,3.56,1.69,5.35,2.55
		c-3.26,2.07-6.87,3.88-10.84,3.82C479.91,231.24,472.37,226.22,468.94,219.27z"/>
	<g>
		<path class="st25" d="M458.26,354.01c5.57-1.91,8.99,3.87,10.66,8.22c2.43,6.35,7.88,12.15,6.63,19.37
			c-0.52,2.82-2.04,5.47-4.26,7.29c-4.02,3.35-7.99,6.77-12,10.12c-2.1,1.7-5.06,2.69-7.68,1.67c-4.6-1.45-6.31-6.45-9.05-9.94
			c-2.56-4.33-6.76-8.05-7.24-13.32c-0.18-4.07,2.26-7.67,5.54-9.86C446.77,363.19,451.95,357.76,458.26,354.01z M457.02,359.56
			c-3.62,2.35-6.71,5.41-10.13,8.03c-2.6,2.24-6.19,4.09-6.72,7.83c-0.89,3.25,1.17,6.15,2.93,8.65c2.24,3.12,4.19,6.45,6.56,9.48
			c2.09,2.78,6.6,3.05,9.12,0.72c3.28-2.65,6.46-5.42,9.67-8.15c3.52-3,4.19-8.38,1.86-12.3c-2.1-4.19-3.94-8.51-6.24-12.59
			C462.76,358.78,459.29,358.24,457.02,359.56z"/>
	</g>
	<path class="st25" d="M397.26,586.01c3.75-1.62,7.86,2.67,6.58,6.4c-0.59,3.75-5.91,5.26-8.4,2.41
		C392.66,592.27,393.72,587.27,397.26,586.01z"/>
	<path class="st25" d="M369.22,605.91c5.44-1.44,10.99,3.99,9.94,9.45c-0.57,3.96-4.31,7.41-8.42,7.02
		c-5.4,0.08-9.28-6.29-7.26-11.15C364.41,608.66,366.6,606.65,369.22,605.91z"/>
	<path class="st25" d="M411.26,608.03c3.77-1.84,8.28,2.47,6.85,6.31c-0.69,3.43-5.25,5.14-7.91,2.77
		C406.99,614.85,407.63,609.5,411.26,608.03z"/>
	<path class="st25" d="M389.95,659.76c2.14-4.46,7.47-7.22,12.31-5.8c4.7,1.32,9.4,2.68,14.09,4.09c2.27,0.6,3.9,2.38,5.1,4.31
		c-0.2,0.44-0.62,1.32-0.83,1.76c-0.74,0.2-2.21,0.62-2.95,0.82c-1.09-1.69-2.35-3.47-4.42-3.98c-4.12-1.27-8.23-2.62-12.45-3.51
		c-2.82-0.6-5.33,1.29-7.23,3.12C392.36,660.3,391.15,660.02,389.95,659.76z"/>
</g>
<g>
	<path class="st26" d="M668.15,235.71c9.99-6.02,20.39-11.38,31.08-16.08c3.93,4.79,9.89,7.02,14.62,10.83
		c0.73,1.4,0.94,3,1.39,4.51c5.28,3.37,10.13,7.4,15.67,10.35c8.69,4.73,13.94,13.54,21.89,19.24c4.86,4.81,10.75,8.46,15.28,13.61
		c3.77,3.72,6.16,8.76,10.79,11.59c12.14,31.65,20.26,64.78,24.84,98.35c1.63,13.93,2.74,27.92,3.31,41.93
		c-0.65,7.8-0.13,15.64-0.54,23.45c-1.13,24.9-5.07,49.69-11.99,73.65c-5.04,15.68-10.59,31.25-18,45.99
		c-2.48,5.23-5.42,10.22-7.93,15.42c-1.63-0.24-3.25-0.47-4.86-0.71c2.58-9.86,6.03-19.5,7.87-29.54
		c2.56-12.15,4.39-24.47,5.27-36.85c-0.32-9.67,1.07-19.33-0.28-28.97c-1.53-9.09-3.99-17.99-5.93-27
		c-1.34-9.23-5.14-17.85-6.78-27.01c-3.23-9.23-4.3-19.1-8.02-28.17c-3.31-5.49-8.15-9.91-11.3-15.53
		c-9.06-17.89-19.58-35.14-32.53-50.5c-4.24-5.72-9.74-10.32-13.98-16.02c-3.08-3.97-7.57-6.45-11-10.07
		c-6.61-6.83-14.38-12.35-21.95-18.05c-9.85-7.08-20.12-13.61-30.94-19.11c-4.83-2.92-10.24-4.68-15.03-7.65
		c9.09-9.09,19.16-17.14,29.47-24.8C654.97,244.1,661.5,239.82,668.15,235.71z"/>
	<path class="st26" d="M266.53,680.54c-2.32-10.63,0.25-21.63,4.64-31.38c0.38,0.44,1.15,1.31,1.54,1.75
		c-3.81,8.54-5.24,18.17-3.99,27.44c2.16,7.63,5.42,15.29,11.03,21.05c3.5,3.65,9.13,6.08,14.08,4.12c3.37-2.45,7.14-5.58,7.29-10.1
		c-3.82-1.32-8.07-0.83-11.74-2.56c-6.28-3.81-4.1-15.22,3.3-16.21c8.71-0.52,16.85,3.24,24.69,6.53c-0.52,0.29-1.57,0.87-2.09,1.16
		c-7.34-2.23-14.9-6.95-22.79-4.35c-4.24,1.18-5.36,7.17-2.43,10.16c3.58,2.87,8.55,0.56,12.42,2.54c1.77,0.88,1.6,3.18,1.24,4.83
		c-0.9,4.5-3.43,9.23-8.03,10.79c-4.49,1.91-9.53,0.27-13.45-2.19C274.06,698.84,268.77,689.87,266.53,680.54z"/>
	<path class="st26" d="M343.31,731.97c5.34-1.18,10.01,5.51,7.15,10.15c-2.03,4.78-9.47,4.87-11.77,0.29
		C336.2,738.45,338.68,732.75,343.31,731.97z"/>
</g>
<g>
	<path class="st27" d="M428.64,220.57c19.78,11.88,32.89,33.91,34.19,56.91c1.52,19.4-5.08,39.37-18.24,53.78
		c-10.02,11.33-23.89,19.09-38.76,21.8c2.61,4.94,5.45,9.76,8.2,14.63c-1.97,0.47-4.44,0.4-5.49,2.47
		c-4.07,6.51-10.79,10.59-15.55,16.53c-6.08,5.6-10.94,12.34-17.01,17.96c-2.02,1.99-4.25,4.05-4.94,6.93
		c-1.78,6.54-5.16,12.52-6.75,19.12c-2,8.06-6.18,15.4-7.81,23.56c-1.36,6.07-5.33,11.19-6.51,17.33
		c-1.65,8.05-5.33,15.46-7.69,23.29c-1.44,8.41-5.58,15.98-7.75,24.16c-0.38,4.9,1.75,9.58,3.5,14.05
		c3.08,6.61,4.46,13.84,7.58,20.43c3.09,6.56,4.2,13.88,7.82,20.21c2.91,4.97,3.43,10.8,5.44,16.11c-7.99,2.05-15.97,4.12-23.97,6.1
		c7.62,18.06,24.36,32.13,43.76,35.61c0.51,1.76,1.03,3.52,1.54,5.29c-16.8-3.17-31.95-12.98-42.95-25.91
		c-2.46-2.72-3.81-6.15-5.79-9.17c-3.45-3.8-9.15-4.11-13.84-2.91c-13.64,3.42-27.28,6.83-40.92,10.27
		c-2.73-0.84-4.81-2.84-6.87-4.71c-12.02-10.57-23.12-22.3-32.26-35.47c-2.22-14.18-7.2-27.71-10.9-41.53
		c-1.92-5.91,0.2-12.01,1.51-17.8c5.07-20.38,11.23-40.51,15.43-61.12c2.09-7.26,4.2-14.52,6.51-21.71
		c1.07-3.5,1.27-7.38,3.67-10.33c3.36-4.42,5.56-9.58,8.83-14.06c2.85-4.47,6.81-8.18,9.12-13c4.23-9.37,10.83-17.41,15.51-26.54
		c1.69-3.17,4.85-5.15,6.92-8.03c3.04-4.25,7.16-7.6,10.03-11.98c2.24-3.35,4.95-6.37,8.16-8.82c3.2-2.46,5.37-5.92,8.09-8.85
		c6.23-6.43,12.92-12.43,18.63-19.34c5.09-5.99,11.67-10.41,16.9-16.25c2.68-3.02,5.91-5.49,9.41-7.51
		c12.21,21.59,24.37,43.2,36.54,64.82c22.06-2.18,41.83-17.5,50.41-37.8c7.26-16.49,7.33-35.91,0.3-52.49
		c-5.79-13.92-16.52-25.72-29.96-32.6C424.83,223.15,426.86,222.04,428.64,220.57z"/>
	<g>
		<path class="st27" d="M508.26,242.01c9.74-2.45,20.33-0.85,29.13,3.91c7.38,4,12.92,10.55,17.67,17.33
			c5.21,7.66,9.32,16.59,9.1,26.04c-0.18,7.93-4.98,15.92-12.45,18.94c-5.28,2.38-11.93-1.98-11.93-7.73
			c-0.83-4.96,5.36-8.04,3.96-13.04c-2.02-3.64-7.25-5.48-10.92-3.18c-5.51,3.35-8.56,9.38-11.23,15.02
			c-3.2,6.46-3.57,14.12-8.05,19.98c-3.57,4.34-9,7.73-14.81,7.18c-9.32,0.04-17.99-9.73-14.72-18.99
			c2.9-8.29,10.41-13.68,17.17-18.74c6.92-5.14,15.51-9.66,18.37-18.38c1.68-4.36-2.31-9.4-6.86-9.08c-4.27,1-6.05,5.46-8.59,8.54
			c-1.31,1.77-3.94,2.74-5.7,1.02c-4.35-4.08-7.74-10.49-5.6-16.5C494.82,247.48,501.71,243.59,508.26,242.01z M507.89,244.71
			c-5.12,1.2-9.88,4.71-11.58,9.82c-0.11,3.66,0.27,7.42,1.66,10.84c0.46,1.17,1.32,2.58,2.83,2.32c4.51-1.97,5.82-8.27,10.94-9.27
			c7.52-1.65,14.33,7.79,10.45,14.44c-4.15,6.69-10.56,11.54-17.05,15.81c-6.86,4.34-13.16,10.14-16.56,17.63
			c-2.05,4.33-1.35,10.57,3.12,13.11c3.99,2.51,9.42,4.57,13.87,1.96c4.07-2.22,5.48-6.94,7.35-10.86
			c4.05-8.68,7.62-17.75,13.54-25.37c2.7-3.5,6.57-6.99,11.32-6.56c5.68-0.08,9.41,5.67,9.55,10.87c-0.73,3.71-3.35,7.05-2.82,11
			c-0.1,2.31,2.22,3.55,4.16,4.01c4.02,0.39,7.54-2.6,9.34-5.96c2.95-5.52,2.61-12.1,1.77-18.1c-2.68-13.86-12.66-25.38-24.58-32.41
			C526.58,244.71,517.04,242.97,507.89,244.71z"/>
	</g>
	<path class="st27" d="M403.88,300.79c6.45-2.77,14.1,2.73,13.68,9.67c0.22,6.99-7.76,12.56-14.15,9.28
		C395.66,316.4,395.82,303.64,403.88,300.79z"/>
	<g>
		<path class="st27" d="M316.25,609.05c7.27-2.55,15.33,3.81,15.34,11.3c0.33,6.77-5.75,13.23-12.67,12.54
			c-5.81-0.48-10.6-5.6-10.94-11.37C307.5,616.12,311.15,610.76,316.25,609.05z M317.12,612.87c-5.7,1.88-7.27,10.05-2.8,14
			c3.76,4.04,11.14,2.37,13.04-2.74C330.39,618.01,323.59,610.02,317.12,612.87z"/>
	</g>
</g>
<g>
	<path class="st28" d="M613.83,235.15c6.23,3.09,12.79,5.39,19.28,7.85c5.1,2.04,10.72,2.65,15.46,5.57
		c-10.31,7.66-20.38,15.71-29.47,24.8c-1.99,1.89-3.89,3.87-5.7,5.93c6.07,5.48,12.79,10.22,18.64,15.96
		c4.02,3.96,8.53,7.41,12.35,11.59c6.7,7.61,13.91,14.79,19.9,23.01c21.48,27.53,36.74,60.21,42.13,94.83
		c7.31,44.24-0.93,89.97-18.51,130.88c-2.74,6.66-6.15,13.02-9.2,19.55c-1.44-0.22-2.88-0.43-4.3-0.64
		c-0.79-4.38,0.83-8.63,1.26-12.95c6.22-45.22-0.89-91.45-15.57-134.39c-4.48-12.13-8.86-24.38-15.02-35.77
		c0.48,14.03,2.03,28.03,1.71,42.09c-0.26,14.82-1.09,29.69-3.54,44.33c-0.51-8.11-3.05-15.93-6.59-23.19
		c-2.27-4.39-2.85-9.45-5.3-13.72c-4.84-6.13-11.21-10.77-16.93-16.01c-5.18-4.14-9.74-8.98-14.38-13.69
		c-3.3-3.34-5.7-7.82-10.16-9.78c-4.04-1.76-8.25-3.11-12.52-4.17c-3.71-0.77-6.73-3.36-10.46-4.04c-4.12-0.89-8.11-2.84-12.41-2.33
		c3.54-9.55,6.98-19.14,10.54-28.68c-14.25-2.79-29.51-0.85-42.35,6.03c-17.09,8.87-29.58,25.69-33.78,44.41
		c-2.07,8.51-1.91,17.37-1.12,26.04c-0.31-0.46-0.95-1.38-1.27-1.84c-1.19,0.58-2.39,1.16-3.58,1.75
		c-3.61-22.67,3.7-47.55,20.94-63.14c12.85-11.63,29.58-18.78,46.77-20.64c3.71-0.54,7.41,0.24,11.11,0.52
		c5.79-0.86,9.66-6.11,11.55-11.27C586.83,307.75,600.29,271.44,613.83,235.15z"/>
	<g>
		<path class="st28" d="M549.37,319.1c7.77-2.4,16.3,4.28,16.34,12.29c0.78,7.21-5.49,14.62-12.92,14.08
			c-6.99,0.41-13.13-6.2-12.98-13.04C539.39,326.47,543.6,320.63,549.37,319.1z M549.01,323.64c-4.62,2.05-6.81,8.11-4.44,12.61
			c2.06,4.75,8.53,6.89,12.86,3.86c4.99-3.01,5.61-10.8,1.38-14.72C556.32,322.82,552.23,322.42,549.01,323.64z"/>
	</g>
</g>
<g>
	<path class="st29" d="M424.13,252.82c4.09-1.19,7.95,4.07,5.64,7.64c-1.62,3.62-7.31,3.47-8.81-0.14
		C419.25,257.56,421.01,253.57,424.13,252.82z"/>
	<path class="st29" d="M395.22,262.15c4.84-2.51,10.86,2.07,10.33,7.3c-0.18,4.73-5.61,8.45-10,6.27
		C389.89,273.59,389.66,264.56,395.22,262.15z"/>
	<path class="st29" d="M377.22,272.9c3.32-1.14,6.78,2.29,6.33,5.61c-0.21,3.21-4.13,5.86-7.08,4.15
		C372.27,280.98,372.82,274,377.22,272.9z"/>
</g>
<g>
	<path class="st30" d="M770.67,268.13c1.2,1.23,2.41,2.48,3.48,3.84c32.09,43.33,60.23,90.52,75.56,142.54
		c11.38,38.25,14.45,78.93,8.77,118.44c-1.29-8.27-1.93-16.62-3.26-24.88c-4.42-27.31-13.29-53.8-25.4-78.63
		c-7.87-14.26-15.65-28.78-26.11-41.33c-4.58-33.57-12.7-66.7-24.84-98.35C776.69,282.34,772.78,275.57,770.67,268.13z"/>
	<path class="st30" d="M372.47,748.8c4.38-2.71,9.26-0.63,13.61,0.97C382.16,753.4,375.79,753.07,372.47,748.8z"/>
	<path class="st30" d="M372.9,808.47c8.16-17.97,16.27-35.97,24.29-54.01c2.59,4.49,7.17,7.15,11,10.46
		c8.79,6.65,17.47,13.53,26.99,19.14c21.97,14.1,46.23,24.38,71.25,31.69c16.74,4.85,34.01,7.65,51.31,9.52
		c8.05-0.02,16,1.66,24.06,1.15c8.36,0.53,16.62-1.08,24.96-1.17c6.5-0.2,12.97-2.47,19.47-1.21c-25.31,8.48-51.95,12.2-78.53,13.6
		C488.29,841.1,427.56,832.66,372.9,808.47z"/>
	<path class="st30" d="M351.19,765.86c4.36-2.86,10.69,1.49,9.68,6.56c-0.17,4.3-5.37,7.27-9.09,4.99
		C347.29,775.41,346.92,768.31,351.19,765.86z"/>
	<path class="st30" d="M325.51,775.05c3.49-1.65,7.42,3.19,5.35,6.38c-0.63,1.73-2.63,2.18-4.04,3.08c-1.43-0.91-3.6-1.31-4.1-3.15
		C321.9,778.96,322.85,775.76,325.51,775.05z"/>
	<path class="st30" d="M369.94,777.65c4.08-1.71,7.66,3.74,5.12,7.02c-1.59,2.64-5.99,2.54-7.37-0.22
		C365.99,782.14,367.33,778.57,369.94,777.65z"/>
	<path class="st30" d="M344.94,794.74c4.84-2.51,10.87,0.43,11.96,5.76C352.88,798.64,349.04,796.42,344.94,794.74z"/>
</g>
<g>
	<path class="st31" d="M430.32,273.08c4.88-2.4,11.03,2.04,10.44,7.39c0.31,5.3-6.14,9.48-10.76,6.62
		C424.39,284.5,424.62,275.44,430.32,273.08z"/>
</g>
<g>
	<path class="st32" d="M613.4,279.3c1.81-2.06,3.71-4.04,5.7-5.93c4.79,2.97,10.2,4.73,15.03,7.65
		c10.82,5.5,21.09,12.03,30.94,19.11c7.57,5.7,15.34,11.22,21.95,18.05c3.43,3.62,7.92,6.1,11,10.07c4.24,5.7,9.74,10.3,13.98,16.02
		c12.95,15.36,23.47,32.61,32.53,50.5c3.15,5.62,7.99,10.04,11.3,15.53c3.72,9.07,4.79,18.94,8.02,28.17
		c1.64,9.16,5.44,17.78,6.78,27.01c1.94,9.01,4.4,17.91,5.93,27c1.35,9.64-0.04,19.3,0.28,28.97c-0.88,12.38-2.71,24.7-5.27,36.85
		c-1.84,10.04-5.29,19.68-7.87,29.54c-16.62-2.58-33.24-5.07-49.86-7.63c-7.45,12.58-10.16,27.88-7.22,42.23
		c2,10.36,6.91,20.1,13.95,27.96c-1.23,0.92-2.46,1.85-3.68,2.79c-18.03-19.51-21.57-50.39-9.04-73.72
		c-9.72-1.44-19.42-2.92-29.14-4.35c3.05-6.53,6.46-12.89,9.2-19.55c17.58-40.91,25.82-86.64,18.51-130.88
		c-5.39-34.62-20.65-67.3-42.13-94.83c-5.99-8.22-13.2-15.4-19.9-23.01c-3.82-4.18-8.33-7.63-12.35-11.59
		C626.19,289.52,619.47,284.78,613.4,279.3z"/>
	<path class="st32" d="M732.89,595.73c4.85-1.47,10.31,1.8,11.17,6.81c2.13,6.96-6.21,13.87-12.61,10.12
		C724.51,609.38,725.5,597.82,732.89,595.73z"/>
	<path class="st32" d="M671.23,668.52c1-8.36,10.42-15.24,18.58-12.05c5.13,1.66,7.49,7.12,8.47,12.01
		c-0.4,2.17-0.97,4.31-1.51,6.46c-1.2-5.34-2.25-12.03-7.68-14.74c-3.49-1.98-7.37,0.18-10.35,2.1c-3.37,2.04-5.24,6.19-4.32,10.06
		c1.08,4.56,3.67,8.55,5.53,12.81c-0.4,1.26-0.76,2.54-1.1,3.83C674.28,683.25,669.6,676.25,671.23,668.52z"/>
	<g>
		<path class="st32" d="M639.17,684.9c6.71-1.26,13.53,4.66,13.51,11.44c0.52,6.84-5.98,13.33-12.89,12.16
			c-7.55-0.62-12.15-9.52-9.34-16.3C631.9,688.49,635.24,685.62,639.17,684.9z M638.95,688.7c-6.45,1.64-7.64,11.34-2.18,14.82
			c4.72,3.43,12.26-0.16,12.32-6.07C649.95,692.05,644.24,686.8,638.95,688.7z"/>
	</g>
	<path class="st32" d="M322.01,722.63c11.42-12.17,28.01-19.55,44.76-19.18c16.65-0.19,32.92,7.3,44.4,19.22
		c2.34-5.06,4.58-10.16,6.84-15.24c2.34,1.74,4.87,3.22,7.63,4.2c28.49,11.71,59.28,18.48,90.16,17.8
		c6.99,0.01,14.01,0.35,20.94-0.82c19.25-1.81,38.27-6.1,56.42-12.78c9.68-3.25,18.78-7.94,28.13-11.97
		c2.35,4.33,4.89,8.56,7.33,12.85c-1.4,1.14-2.81,2.31-4.41,3.17c-23.5,11.97-47.7,22.58-72.54,31.43
		c-12.33,4.15-25.28,5.82-38.09,7.72c-23.25,2.61-46.75,2.32-70.04,0.45c-9.6-1.04-19.18-2.2-28.68-3.94
		c-5.54-1.09-11.23-1.68-16.53-3.71c3.51-7.71,6.89-15.47,10.45-23.14c-8.69-10.11-20.79-17.34-34.03-19.41
		c-17.41-3.2-36.01,3.11-48.37,15.67c-10.28,9.97-16.22,23.92-17.27,38.13c-1.67-0.01-3.33,0-4.99,0.02
		C305.48,748.15,311.41,733.42,322.01,722.63z"/>
</g>
<g>
	<path class="st33" d="M104.61,285.09c0.54-1.01,0.61-2.67,2.08-2.71c-0.64,1.67-1.45,3.28-2.35,4.83
		c-5.37,9.03-9.5,18.72-14.52,27.95C93.66,304.66,99.62,295.07,104.61,285.09z"/>
	<path class="st33" d="M408.54,370.16c1.05-2.07,3.52-2,5.49-2.47c28.47,50.36,57.05,100.66,85.51,151.03
		c1.14,2.2,3.5,4.34,6.17,3.59c2.48-0.68,3.6-3.27,4.51-5.43c1.57-4.24,2.64-8.65,4.07-12.94c1.08-3.58,2.65-7.43,1.33-11.17
		c-1.53-4.72-5.55-7.88-8.95-11.24c-11.91-11.53-21.09-26.42-23.73-42.96c1.19-0.59,2.39-1.17,3.58-1.75
		c0.32,0.46,0.96,1.38,1.27,1.84c3,19.66,14.75,37.73,31.68,48.21c11.58-32.03,23.41-63.98,35.03-96.01
		c4.3-0.51,8.29,1.44,12.41,2.33c3.73,0.68,6.75,3.27,10.46,4.04c4.27,1.06,8.48,2.41,12.52,4.17c4.46,1.96,6.86,6.44,10.16,9.78
		c4.64,4.71,9.2,9.55,14.38,13.69c5.72,5.24,12.09,9.88,16.93,16.01c2.45,4.27,3.03,9.33,5.3,13.72c3.54,7.26,6.08,15.08,6.59,23.19
		c-4.61,30.69-14.45,60.82-30.67,87.38c-22.62-3.38-45.22-6.85-67.85-10.16c-2.86-0.83-6.34,1.32-6.03,4.45
		c1.11,4.92,4.67,8.76,7.16,13.03c2.14,3.06,3.72,7.06,7.5,8.45c4.69,1.71,9.67,0.12,14.42-0.4c10.57-1.6,21.54-0.58,31.62,3
		c-0.82,1.14-1.63,2.3-2.44,3.45c-13.18-5.31-28.43-5.28-41.6,0.04c5.1,8.47,9.87,17.13,14.92,25.63c-0.81,1.24-1.52,2.58-2.62,3.61
		c-27.94,22.72-61.57,38.11-96.74,45.57c-8.6,1.9-17.35,3.07-26.12,3.67c-2.62,0.22-5.22-0.12-7.77-0.63
		c14.83-33.27,29.76-66.51,44.58-99.79c1.36-2.52-0.26-4.94-1.78-6.88c-5.84-0.32-11.16,2.34-16.66,3.83
		c-3.04,0.98-6.59,1.58-8.54,4.4c-2.88,3.74-3.01,8.64-3.71,13.12c-2.05,14.63-7.78,29.16-18.25,39.83
		c-13.43,13.59-33.48,20.88-52.47,17.45c-0.51-1.77-1.03-3.53-1.54-5.29c16.25,3.25,33.75-1.3,46.6-11.7
		c15.87-12.34,24.29-32.95,22.77-52.87c-29.71,7.63-59.45,15.21-89.16,22.86c-2.01-5.31-2.53-11.14-5.44-16.11
		c-3.62-6.33-4.73-13.65-7.82-20.21c-3.12-6.59-4.5-13.82-7.58-20.43c-1.75-4.47-3.88-9.15-3.5-14.05
		c2.17-8.18,6.31-15.75,7.75-24.16c2.36-7.83,6.04-15.24,7.69-23.29c1.18-6.14,5.15-11.26,6.51-17.33
		c1.63-8.16,5.81-15.5,7.81-23.56c1.59-6.6,4.97-12.58,6.75-19.12c0.69-2.88,2.92-4.94,4.94-6.93c6.07-5.62,10.93-12.36,17.01-17.96
		C397.75,380.75,404.47,376.67,408.54,370.16z"/>
	<path class="st33" d="M523.21,375.87c5.01-1.89,11.02,1.32,11.86,6.69c1.94,6.7-5.6,13.65-12.07,10.59
		C515.47,390.43,515.58,378.39,523.21,375.87z"/>
	<path class="st33" d="M498.16,419.77c4.19-2.69,9.71,1.99,8.24,6.59c-0.86,4.3-7.1,5.72-9.76,2.28
		C494.2,425.99,495.1,421.52,498.16,419.77z"/>
	<path class="st33" d="M527.21,419.89c3.56-1.48,7.83,1.81,7.53,5.58c0.41,4.32-5.36,7.53-8.76,4.74
		C522.17,427.79,522.96,421.37,527.21,419.89z"/>
	<path class="st33" d="M422.11,583.83c3.2-2.03,7.84,0,8.81,3.58c1.67,4.27-2.55,9.36-7.12,8.03
		C418.42,594.47,417.26,586.37,422.11,583.83z"/>
	<path class="st33" d="M579.81,597.48c2.22-1.42,4.83-0.44,6.81,0.92c-2.55,3.32-5.49,6.32-8.85,8.83
		C575.58,604.09,576.11,599.2,579.81,597.48z"/>
</g>
<g>
	<path class="st34" d="M803.71,388.11c10.46,12.55,18.24,27.07,26.11,41.33c12.11,24.83,20.98,51.32,25.4,78.63
		c1.33,8.26,1.97,16.61,3.26,24.88c-1.52,14.4-4.54,28.6-7.33,42.8c-0.9,5.81-3.88,11.19-4,17.12c-3.74,1.5-6.11,5.03-6.9,8.88
		c-1.09,5.76-1.62,11.62-3,17.33c-3.47,3.85-3.8,9.74-7.8,13.08c1.5-7.91,3.46-15.75,4.44-23.74c0.6-4.27-1.41-8.69-5.16-10.85
		c2.23-9.23,2.89-18.74,4.03-28.15c0.15-10.66-0.04-21.34,0.08-32.01c-1.88-29.84-9.02-59.38-21.37-86.64
		c-1.6-3.58-3.74-7.17-3.6-11.23c0-3.19-0.22-6.37-0.85-9.5C806.45,416.03,805.34,402.04,803.71,388.11z"/>
	<path class="st34" d="M397.19,754.46c0.37-0.89,0.75-1.77,1.14-2.63c5.3,2.03,10.99,2.62,16.53,3.71c9.5,1.74,19.08,2.9,28.68,3.94
		c33.9,22.03,73.01,36.05,113.26,40.13c10.58,1.64,21.31,0.49,31.97,0.86c6.03,0.15,12.08,0.16,18.06-0.74
		c19.36-1.94,38.53-5.93,56.94-12.28c1.45-0.51,2.45-1.75,3.55-2.76c3.31,5.78,6.55,11.6,9.9,17.36c-4.42,2.54-8.85,5.07-13.48,7.21
		c-12.2,5.65-24.55,11.14-37.51,14.78c-6.5-1.26-12.97,1.01-19.47,1.21c-8.34,0.09-16.6,1.7-24.96,1.17
		c-8.06,0.51-16.01-1.17-24.06-1.15c-17.3-1.87-34.57-4.67-51.31-9.52c-25.02-7.31-49.28-17.59-71.25-31.69
		c-9.52-5.61-18.2-12.49-26.99-19.14C404.36,761.61,399.78,758.95,397.19,754.46z"/>
</g>
<g>
	<path class="st35" d="M197.25,396.21c0.05-0.09,0.17-0.28,0.23-0.37l-0.13,0.19L197.25,396.21z"/>
</g>
<g>
	<path class="st36" d="M190.85,409.61c0.22-0.58,0.67-1.73,0.89-2.3C191.52,407.88,191.07,409.03,190.85,409.61z"/>
</g>
<g>
	<path class="st37" d="M57.14,416.6c-1.03-0.95-1.02-4.13,0.79-3.9C58,414.04,57.84,415.41,57.14,416.6z"/>
	<path class="st37" d="M57.15,586.3c0.7,1.17,0.85,2.55,0.78,3.91C56.14,590.37,56.1,587.22,57.15,586.3z"/>
</g>
<g>
	<path class="st38" d="M938.63,412.71c1.79-0.27,1.82,2.93,0.78,3.84C938.7,415.39,938.53,414.03,938.63,412.71z"/>
	<path class="st38" d="M738.12,633.97c3.46-2.34,8.62-0.4,9.72,3.61c2.24,5.03-3.72,10.99-8.76,8.47
		C734.21,644.09,733.53,636.64,738.12,633.97z"/>
</g>
<g>
	<path class="st39" d="M807.02,430.04c0.63,3.13,0.85,6.31,0.85,9.5c-0.14,4.06,2,7.65,3.6,11.23
		c12.35,27.26,19.49,56.8,21.37,86.64c-0.12,10.67,0.07,21.35-0.08,32.01c-1.14,9.41-1.8,18.92-4.03,28.15
		c-2.18-0.39-4.37-0.64-6.55-0.91c3.06,16.25,0.47,33.7-8.38,47.8c-7.44,12.25-19.28,21.72-32.88,26.27
		c0.45-1.98,0.89-3.94,1.28-5.92c14.15-5.85,25.64-17.69,31.08-32c4.26-10.86,4.91-22.97,2.57-34.35c-0.37-1.14-0.39-3.14-2.11-2.99
		c-7.26-1.2-14.55-2.19-21.82-3.34c2.5-8.34,3.07-17.08,3.91-25.71c0.09-8.65-0.04-17.3,0.06-25.95c0.13-4.5-0.66-8.93-1.4-13.33
		c6.92-23.96,10.86-48.75,11.99-73.65C806.89,445.68,806.37,437.84,807.02,430.04z"/>
	<path class="st39" d="M750.02,701.66c5.43-3.71,13.09-3.72,18.53,0c6.51,4.05,9.52,12.53,7.72,19.88c-0.13-0.51-0.4-1.53-0.53-2.03
		c-1.38,0.96-2.76,1.92-4.06,2.99c3.14-7.97-1.99-18.36-10.89-19.15c-8.67-1.34-16.32,7.71-14.24,16.08
		c1.18,8.5,11.23,13.52,18.84,9.65c-0.41,1.67-0.78,3.35-1.11,5.05l-0.06,0.29c-4.05,0.2-8.39,0.64-12.09-1.36
		c-7.47-3.56-11.63-12.64-9.58-20.63C743.54,708.07,746.25,704.1,750.02,701.66z"/>
	<path class="st39" d="M651.17,756.38c5.42,9.42,10.71,18.91,16.15,28.31c-1.1,1.01-2.1,2.25-3.55,2.76
		c-18.41,6.35-37.58,10.34-56.94,12.28c-5.98,0.9-12.03,0.89-18.06,0.74c-10.66-0.37-21.39,0.78-31.97-0.86
		c-40.25-4.08-79.36-18.1-113.26-40.13c23.29,1.87,46.79,2.16,70.04-0.45c21.43,6.39,43.68,11.07,66.15,10.41
		c8.02-0.23,16.09,0.56,24.06-0.69c15.8-1.49,31.44-4.73,46.52-9.66C650.52,758.41,650.96,757.05,651.17,756.38z"/>
</g>
<g>
	<path class="st40" d="M511.03,444.81c4.45-2.64,10.52,1.7,9.73,6.74c0.18,4.65-5.71,8.1-9.67,5.62
		C506.24,454.9,506.23,447.15,511.03,444.81z"/>
</g>
<g>
	<path class="st41" d="M776.49,573.13c7.41-14.74,12.96-30.31,18-45.99c0.74,4.4,1.53,8.83,1.4,13.33
		c-0.1,8.65,0.03,17.3-0.06,25.95c-0.84,8.63-1.41,17.37-3.91,25.71c-7.79-1.22-15.58-2.38-23.36-3.58
		C771.07,583.35,774.01,578.36,776.49,573.13z"/>
	<path class="st41" d="M720.57,650.4c5.41,5.87,12,10.71,19.35,13.87c13.26,5.86,28.86,5.96,42.28,0.54
		c-0.39,1.98-0.83,3.94-1.28,5.92c-9.02,2.94-18.69,3.56-28.07,2.27c-13.81-2.18-26.7-9.35-35.96-19.81
		C718.11,652.25,719.34,651.32,720.57,650.4z"/>
	<path class="st41" d="M628.62,716.71c7.47,13.25,15.03,26.45,22.55,39.67c-0.21,0.67-0.65,2.03-0.86,2.71
		c-15.08,4.93-30.72,8.17-46.52,9.66c-7.97,1.25-16.04,0.46-24.06,0.69c-22.47,0.66-44.72-4.02-66.15-10.41
		c12.81-1.9,25.76-3.57,38.09-7.72c24.84-8.85,49.04-19.46,72.54-31.43C625.81,719.02,627.22,717.85,628.62,716.71z"/>
</g>
<g>
	<path class="st42" d="M599.4,583.54c14.66,5.36,26.43,17.07,33.42,30.86c7.95,15.82,7.55,34.75,2.11,51.3
		c-2.92,8.3-6.5,16.75-12.8,23.09c-4.2,3.84-3.17,10.47-0.84,15.07c-9.35,4.03-18.45,8.72-28.13,11.97
		c-18.15,6.68-37.17,10.97-56.42,12.78c-6.93,1.17-13.95,0.83-20.94,0.82c-30.88,0.68-61.67-6.09-90.16-17.8
		c-2.76-0.98-5.29-2.46-7.63-4.2c6.38-14.17,12.68-28.37,19.02-42.55c2.55,0.51,5.15,0.85,7.77,0.63c8.77-0.6,17.52-1.77,26.12-3.67
		c35.17-7.46,68.8-22.85,96.74-45.57c1.1-1.03,1.81-2.37,2.62-3.61c14.59,25.48,29.33,50.86,43.94,76.32
		c6.42-5.82,11.78-12.87,15.22-20.85c7.66-17.35,6.63-38.23-2.65-54.77c-6.55-11.84-17.27-21.32-29.83-26.37
		C597.77,585.84,598.58,584.68,599.4,583.54z"/>
</g>
<g>
	<g>
		<path class="st43" d="M652.28,585.11c5.77-1.21,11.7,0.6,17.55,0.46c4.7-0.18,8.92,4.18,8.81,8.84c0.03,6.69,0.07,13.4-0.02,20.1
			c0.15,3.5-3.21,6.77-6.74,6.25c-5.08-0.86-10.08-2.11-15.11-3.18c-3.23-0.56-6.17-2.58-7.68-5.5c-1.8-2.88-1.15-6.41-1.31-9.61
			c0.09-4.03-0.5-8.08,0.01-12.09C648.09,587.93,650.08,586,652.28,585.11z M655,588.74c-2.82,0.82-4.36,3.86-4.16,6.66
			c0.1,3.97,0.18,7.96,0.51,11.93c0.31,3.39,3.07,6.33,6.41,6.95c4.32,0.91,8.6,2.19,13.01,2.59c2.89,0.2,4.87-2.69,4.58-5.37
			c-0.02-5.4,0.29-10.82-0.05-16.21c-0.28-3.72-3.97-6.38-7.58-6.08C663.48,589.28,659.18,587.99,655,588.74z"/>
	</g>
	<path class="st43" d="M618.08,640.8c6.07-2.15,12.35,4.93,9.72,10.69c-1.39,4.93-8.06,7.12-12.03,3.78
		C610.55,651.68,611.91,642.56,618.08,640.8z"/>
</g>
<g>
	<path class="st44" d="M771.06,597.71c2.76-1.55,6.59,0.51,6.63,3.72c0.27,3.06-3.48,6.18-6.3,4.32
		C768.12,604.4,767.88,599.34,771.06,597.71z"/>
	<path class="st44" d="M766.1,614.82c4.29-1.92,9.37,2.14,8.62,6.73c-0.05,4.91-6.82,7.98-10.28,4.28
		C760.63,622.94,761.71,616.51,766.1,614.82z"/>
	<path class="st44" d="M756.69,646.42c-0.33-2.51,1.94-4.39,4.23-4.68c2.92,0.14,5.56,3.4,4.21,6.24c-0.56,1.98-2.67,2.6-4.33,3.37
		C758.78,650.43,756.45,648.99,756.69,646.42z"/>
</g>
<g>
	<path class="st45" d="M586.62,598.4c1.88,2.63,2.56,6.36,0.04,8.85c-2.3,2.9-6.41,2.22-8.89-0.02
		C581.13,604.72,584.07,601.72,586.62,598.4z"/>
	<path class="st45" d="M604.15,603.96c2.64-2.22,7.09-0.8,7.85,2.58c1.45,3.58-2.54,7.86-6.22,6.47
		C602.03,611.86,600.93,606.32,604.15,603.96z"/>
</g>
<g>
	<path class="st46" d="M794.13,610.81c4.63-2.3,10.73,1.42,10.62,6.62c0.64,5.58-6.23,10.12-11.03,7
		C788.41,621.7,788.85,613.35,794.13,610.81z"/>
	<path class="st46" d="M781.05,641.73c3.17-2.08,7.55,1.17,6.79,4.78c-0.38,3.38-5.34,5.13-7.45,2.21
		C778.22,646.86,778.88,643.29,781.05,641.73z"/>
</g>
<g>
	<path class="st47" d="M285.76,632.54c5.71-2.78,13-2.16,18.02,1.77c3.71,3,3.91,9.24,0.25,12.37c-3.02,3.24-8.45,0.27-11.42,3.61
		c-2.29,3.6-0.2,9.05,3.71,10.62c5.72,2.33,12.02,1.29,17.9,0.22c4.91-0.94,9.43-3.65,14.53-3.67c7.8-0.5,15.99,4.95,17.11,12.99
		c1.69,6.2-1.73,13.77-8.09,15.65c-7.65,1.75-15.46-0.89-22.49-3.76c0.52-0.29,1.57-0.87,2.09-1.16c5.74,1.66,11.87,3.33,17.83,1.83
		c3.55-0.84,6.96-3.79,7.04-7.65c0.12-3.9-0.67-8.06-3.24-11.12c-2.26-2.57-5.96-3.34-9.23-2.72c-8.97,1.36-17.9,3.39-27.01,3.65
		c-4.4-0.13-9.5-0.58-12.65-4.04c-3.37-3.55-3.03-9.62,0.46-12.97c3.09-3.71,10.29-1.54,11.9-6.81c0.69-5.04-5.18-8.31-9.65-7.42
		c-9.24,1.32-16.11,9.02-20.11,16.98c-0.39-0.44-1.16-1.31-1.54-1.75C274.21,642.39,278.86,635.78,285.76,632.54z"/>
</g>
<g>
	<path class="st48" d="M389.91,659.75l0.04,0.01c1.2,0.26,2.41,0.54,3.62,0.81c-2.22,4.01-4.41,8.05-6.39,12.18
		c-1.17,2.25-1.11,5.66,1.39,7.01c3.99,1.97,8.44,2.77,12.6,4.3c2.76,0.79,5.92,2.34,8.63,0.57c2.98-1.45,3.65-4.96,4.7-7.77
		c1.22-3.92,3.21-7.72,3.17-11.92c0.74-0.2,2.21-0.62,2.95-0.82c0.21-0.44,0.63-1.32,0.83-1.76c1.34,5.19-1.61,9.97-3.05,14.78
		c-1.53,4.04-2.3,9.16-6.62,11.24c-4.31,2.38-8.96-0.5-13.19-1.58c-4.04-1.34-8.16-2.43-12.16-3.88c-3.31-1.19-5.4-5.34-3.79-8.61
		C384.81,669.33,387.66,664.69,389.91,659.75z"/>
</g>
<g>
	<path class="st49" d="M698.28,668.48c1.07,8.62,0.34,17.34-0.28,25.97c0.14,4.76,0.51,10.13,3.92,13.82
		c2.57,2.93,8.46,1.68,9.31-2.25c1.08-4.25-2.13-8.23-1.32-12.49c1.07-2.19,3.86-2.08,5.94-2.01c4.79-0.07,9.74,2.61,11.52,7.21
		c2.49,5.67,0.72,12.13-1.92,17.41c-5.67,11.57-17.73,20.02-30.74,20.36c-9.9,0.63-20.53-0.38-28.89-6.2
		c-5.85-3.85-9.2-10.98-8.68-17.91c0.32-3.12,1.61-6.54,4.64-7.94c3.56-2.11,9.01-0.34,10.21,3.74c0.9,2.86,1.94,5.88,4.76,7.42
		c3.09-0.94,6.72-2.31,7.39-5.91c1.56-7.32-2.64-14.22-5.29-20.7c0.34-1.29,0.7-2.57,1.1-3.83c3.22,7.1,6.86,14.27,7.72,22.12
		c0.62,4.22-1.38,8.8-5.26,10.75c-3.79,1.41-8.9,0.27-10.77-3.59c-1.65-2.67-3.09-6.47-6.7-6.75c-3.94,0.8-5.72,5.56-4.75,9.15
		c1.31,6.43,6.71,10.99,12.22,13.98c10.34,5.42,22.87,4.59,33.58,0.69c4.79-2.16,8.72-5.85,12.41-9.52
		c4.92-5.13,9.24-12.16,7.37-19.54c-0.64-3.62-4.06-5.55-7.02-7.08c-1.72-0.81-3.83-1.79-5.62-0.64c-1.4,4.36,1.95,8.96,0.22,13.32
		c-2.34,4.75-9.08,6.06-13.17,2.83c-2.76-2.22-3.23-5.98-3.71-9.24c-1.42-8.9,1.07-17.79,0.3-26.71
		C697.31,672.79,697.88,670.65,698.28,668.48z"/>
</g>
<g>
	<path class="st50" d="M372.47,748.8c-4.9-5.88,0.37-16.2,8.17-14.86c7.36,0.81,10.48,10.61,5.44,15.83
		C381.73,748.17,376.85,746.09,372.47,748.8z"/>
</g>
<g>
	<path class="st51" d="M711.72,765.47c-0.73-6.66,6.79-12.72,13.07-9.92c4.08,1.34,6.08,5.53,6.62,9.53
		c-0.54,0.14-1.62,0.42-2.16,0.56c-0.93-2.65-1.58-6.03-4.53-7.16c-4.25-2.56-9.95,1.22-10.04,5.96c-0.4,3.84,2.69,7.01,6.22,7.93
		c-0.33,0.7-0.98,2.1-1.31,2.8C715.55,773.59,711.73,770.09,711.72,765.47z"/>
</g>
<g>
	<path class="st52" d="M304.12,763.1c1.66-0.02,3.32-0.03,4.99-0.02c-0.15,1.8-0.21,3.63-0.16,5.47c-1.39-1-2.78-1.98-4.17-2.96
		c-0.26,2.35-0.56,4.71-0.68,7.09C303.79,769.49,303.72,766.28,304.12,763.1z"/>
</g>
<g>
	<path class="st53" d="M416.1,940.42c-0.12-1.97,3.9-1.34,1.87,0.28C417.5,940.63,416.57,940.49,416.1,940.42z"/>
</g>
<g>
	<path class="st54" d="M420.93,941.25c0.22-1.39,2.48-1.33,2.75,0.02C422.99,941.26,421.61,941.25,420.93,941.25z"/>
</g>
</svg>
